<?xml version="1.0" encoding="utf-8"?>
<!-- Generator: Adobe Illustrator 25.2.1, SVG Export Plug-In . SVG Version: 6.00 Build 0)  -->
<svg version="1.1" id="Слой_1" xmlns="http://www.w3.org/2000/svg" xmlns:xlink="http://www.w3.org/1999/xlink" x="0px" y="0px"
	 viewBox="0 0 339.9 129.4" style="enable-background:new 0 0 339.9 129.4;" xml:space="preserve">
<style type="text/css">
	.st0{fill:#3439CE;}
	.st1{fill:#00CE84;}
	.st2{clip-path:url(#SVGID_2_);fill:#4EAEC4;}
	.st3{clip-path:url(#SVGID_2_);}
	.st4{clip-path:url(#SVGID_4_);fill:#F5C832;}
	.st5{clip-path:url(#SVGID_4_);fill:#4EAEC4;}
	.st6{clip-path:url(#SVGID_4_);}
	.st7{fill:#4EAEC4;}
	.st8{fill:#F5C832;}
</style>
<path d="M15.1,121.8h-2.2L4,108.3v13.5H1.9v-16.9h2.2l8.9,13.4v-13.4h2.2L15.1,121.8z"/>
<path d="M18.9,111.5c0.5-1,1.3-1.8,2.3-2.4s2.1-0.9,3.2-0.8c1,0,2.1,0.2,3,0.8c0.8,0.4,1.5,1.1,1.9,1.9v-2.4h2.2v13.3h-2.2v-2.5
	c-0.5,0.8-1.1,1.5-2,1.9c-0.9,0.5-1.9,0.8-3,0.8s-2.2-0.3-3.2-0.9s-1.7-1.4-2.2-2.4c-0.6-1.1-0.8-2.3-0.8-3.6
	C18.1,113.8,18.3,112.6,18.9,111.5z M28.7,112.5c-0.4-0.7-0.9-1.3-1.6-1.7c-1.4-0.8-3.1-0.8-4.5,0c-0.7,0.4-1.3,1-1.6,1.7
	c-0.4,0.8-0.6,1.7-0.6,2.6s0.2,1.8,0.6,2.7c0.4,0.7,0.9,1.3,1.6,1.7c0.7,0.4,1.5,0.6,2.2,0.6c0.8,0,1.6-0.2,2.3-0.6
	c0.7-0.4,1.3-1,1.6-1.7C29.5,116.1,29.5,114.2,28.7,112.5L28.7,112.5z"/>
<path d="M38,110.3v7.8c-0.1,0.5,0.1,1,0.4,1.4c0.4,0.3,0.9,0.5,1.4,0.4h1.6v1.9h-2c-1,0.1-2-0.2-2.8-0.8c-0.7-0.8-1-1.8-0.9-2.8
	v-7.8H34v-1.8h1.7v-3.3H38v3.3h3.5v1.8L38,110.3L38,110.3z"/>
<path d="M44.2,105.9c-0.3-0.3-0.4-0.7-0.4-1.1s0.2-0.8,0.4-1.1c0.3-0.3,0.7-0.4,1.1-0.4c0.4,0,0.7,0.2,1,0.4
	c0.3,0.3,0.4,0.7,0.4,1.1s-0.1,0.8-0.4,1.1c-0.3,0.3-0.6,0.4-1,0.4C44.9,106.3,44.5,106.2,44.2,105.9z M46.3,108.5v13.3h-2.2v-13.3
	H46.3z"/>
<path d="M52.5,121.1c-1-0.6-1.8-1.4-2.4-2.4c-0.6-1.1-0.9-2.4-0.9-3.6c0-1.3,0.3-2.5,0.9-3.6c0.6-1,1.4-1.8,2.4-2.4
	c2.1-1.1,4.7-1.1,6.8,0c1,0.6,1.8,1.4,2.4,2.4c1.2,2.3,1.2,5,0,7.2c-0.6,1-1.4,1.8-2.5,2.4s-2.2,0.9-3.5,0.8
	C54.7,122,53.5,121.7,52.5,121.1z M58.1,119.5c0.7-0.4,1.3-1,1.7-1.7c0.4-0.8,0.7-1.8,0.6-2.7c0-0.9-0.2-1.9-0.6-2.7
	c-0.4-0.7-0.9-1.3-1.7-1.7c-1.4-0.7-3-0.7-4.4,0c-0.7,0.4-1.3,1-1.6,1.7c-0.4,0.8-0.6,1.8-0.6,2.7c0,0.9,0.2,1.9,0.6,2.7
	c0.4,0.7,0.9,1.3,1.6,1.7c0.7,0.4,1.4,0.6,2.2,0.6C56.6,120.1,57.4,119.9,58.1,119.5z"/>
<path d="M76,109.7c1.1,1.1,1.6,2.7,1.5,4.2v7.8h-2.2v-7.5c0.1-1.1-0.3-2.2-1-3c-0.7-0.7-1.7-1.1-2.7-1c-1-0.1-2.1,0.3-2.8,1.1
	c-0.7,0.9-1.1,2-1,3.2v7.3h-2.2v-13.4h2.2v1.9c0.4-0.7,1.1-1.2,1.8-1.6c0.8-0.4,1.6-0.6,2.5-0.6C73.5,108.2,74.9,108.7,76,109.7z"/>
<path d="M81.1,111.5c0.5-1,1.3-1.8,2.3-2.4s2.1-0.9,3.2-0.8c1,0,2.1,0.2,3,0.8c0.8,0.4,1.5,1.1,1.9,1.9v-2.4h2.2v13.3h-2.2v-2.5
	c-0.5,0.8-1.2,1.5-2,1.9c-0.9,0.5-1.9,0.8-3,0.8s-2.2-0.3-3.2-0.9s-1.7-1.4-2.2-2.4c-0.6-1.1-0.8-2.3-0.8-3.6
	C80.2,113.8,80.5,112.6,81.1,111.5z M90.9,112.5c-0.4-0.7-0.9-1.3-1.6-1.7c-1.4-0.8-3.1-0.8-4.5,0c-0.7,0.4-1.3,1-1.6,1.7
	c-0.4,0.8-0.6,1.7-0.6,2.6s0.2,1.8,0.6,2.7c0.4,0.7,0.9,1.3,1.6,1.7c0.7,0.4,1.5,0.6,2.2,0.6c0.8,0,1.6-0.2,2.3-0.6
	c0.7-0.4,1.3-1,1.6-1.7C91.7,116.1,91.7,114.2,90.9,112.5L90.9,112.5z"/>
<path d="M99.7,103.8v17.9h-2.2v-17.9H99.7z"/>
<path d="M123,104.9v16.9h-2.2v-7.7h-8.6v7.7H110v-16.9h2.2v7.4h8.6v-7.4H123z"/>
<path d="M135.9,112v1.9h-9.7V112H135.9z"/>
<path d="M140.1,105.9c-0.3-0.3-0.4-0.7-0.4-1.1s0.1-0.8,0.4-1.1c0.3-0.3,0.7-0.4,1.1-0.4c0.4,0,0.7,0.2,1,0.4
	c0.3,0.3,0.4,0.7,0.4,1.1s-0.1,0.8-0.4,1.1c-0.3,0.3-0.6,0.4-1,0.4C140.8,106.3,140.4,106.2,140.1,105.9z M142.3,108.5v13.3h-2.2
	v-13.3H142.3z"/>
<path d="M156.4,109.7c1.1,1.1,1.6,2.7,1.5,4.2v7.8h-2.2v-7.5c0.1-1.1-0.3-2.2-1-3c-0.7-0.7-1.7-1.1-2.7-1c-1-0.1-2.1,0.3-2.8,1.1
	c-0.7,0.9-1.1,2-1,3.2v7.3H146v-13.4h2.2v1.9c0.4-0.7,1.1-1.2,1.8-1.6c0.8-0.4,1.6-0.6,2.5-0.6C153.9,108.2,155.4,108.7,156.4,109.7
	z"/>
<path d="M161.5,111.5c0.5-1,1.3-1.8,2.3-2.4s2.1-0.9,3.2-0.8c1,0,2,0.2,2.9,0.7c0.8,0.4,1.5,1.1,2,1.9v-7h2.2v17.9H172v-2.5
	c-0.5,0.8-1.1,1.5-1.9,2c-0.9,0.5-1.9,0.8-3,0.8c-2.3,0-4.4-1.3-5.5-3.3c-0.6-1.1-0.8-2.3-0.8-3.6
	C160.7,113.9,161,112.6,161.5,111.5z M171.3,112.5c-0.4-0.7-0.9-1.3-1.6-1.7c-1.4-0.8-3.1-0.8-4.5,0c-0.7,0.4-1.3,1-1.6,1.7
	c-0.4,0.8-0.6,1.7-0.6,2.6s0.2,1.8,0.6,2.7c0.4,0.7,0.9,1.3,1.6,1.7c0.7,0.4,1.5,0.6,2.2,0.6c0.8,0,1.6-0.2,2.3-0.6s1.3-1,1.6-1.7
	C172.2,116.1,172.2,114.2,171.3,112.5L171.3,112.5z"/>
<path d="M190,116h-10.6c0,2.3,1.9,4.2,4.2,4.2h0.1c0.8,0,1.7-0.2,2.4-0.7c0.6-0.4,1.1-1.1,1.3-1.8h2.4c-0.3,1.2-1.1,2.3-2.1,3.1
	c-1.2,0.8-2.6,1.3-4,1.2c-1.2,0-2.3-0.3-3.4-0.8c-1-0.6-1.8-1.4-2.3-2.4c-0.6-1.1-0.9-2.4-0.9-3.6c0-1.3,0.3-2.5,0.8-3.6
	c0.5-1,1.3-1.8,2.3-2.4c1.1-0.6,2.2-0.9,3.4-0.8c1.2,0,2.3,0.3,3.4,0.8c0.9,0.5,1.7,1.3,2.2,2.3s0.8,2.1,0.8,3.3
	C190,115.1,190,115.6,190,116z M187.2,112c-0.4-0.6-0.9-1.1-1.5-1.4c-0.7-0.3-1.4-0.5-2.1-0.5c-1.1,0-2.1,0.4-2.9,1.1
	c-0.8,0.8-1.3,1.9-1.3,3h8.4C187.8,113.4,187.6,112.7,187.2,112L187.2,112z"/>
<path d="M199.9,121.8l-3.2-5l-3,5h-2.3l4.3-6.6l-4.3-6.7h2.5l3.1,4.9l3-4.9h2.3l-4.3,6.6l4.3,6.7H199.9z"/>
<path d="M219.9,121.8l-4-6.9h-2.7v6.9H211v-16.9h5.4c1.1,0,2.2,0.2,3.2,0.7c0.8,0.4,1.5,1,2,1.8c0.4,0.8,0.7,1.6,0.7,2.5
	c0,1.1-0.3,2.2-1,3.1c-0.8,0.9-1.8,1.6-3,1.8l4.2,7.1L219.9,121.8z M213.2,113.1h3.2c1,0.1,1.9-0.2,2.7-0.9c0.6-0.6,0.9-1.5,0.9-2.4
	c0.1-0.9-0.3-1.7-0.9-2.3c-0.8-0.6-1.7-0.9-2.7-0.8h-3.2V113.1z"/>
<path d="M225.8,111.5c0.5-1,1.3-1.8,2.3-2.4s2.1-0.9,3.2-0.8c1,0,2.1,0.2,3,0.8c0.8,0.4,1.5,1.1,1.9,1.9v-2.4h2.2v13.3h-2.2v-2.5
	c-0.5,0.8-1.1,1.5-1.9,1.9c-0.9,0.5-1.9,0.8-3,0.8s-2.2-0.3-3.2-0.9s-1.7-1.4-2.3-2.4c-0.6-1.1-0.8-2.3-0.8-3.6
	C224.9,113.8,225.2,112.6,225.8,111.5z M235.6,112.5c-0.4-0.7-0.9-1.3-1.6-1.7c-0.7-0.4-1.5-0.6-2.3-0.6s-1.6,0.2-2.2,0.6
	c-0.7,0.4-1.3,1-1.6,1.7c-0.4,0.8-0.6,1.7-0.6,2.6s0.2,1.8,0.6,2.7c0.4,0.7,0.9,1.3,1.6,1.7c0.7,0.4,1.5,0.6,2.2,0.6
	c0.8,0,1.6-0.2,2.3-0.6s1.3-1,1.6-1.7C236.4,116.1,236.4,114.2,235.6,112.5z"/>
<path d="M252.6,109.7c1.1,1.1,1.6,2.7,1.5,4.2v7.8h-2.2v-7.5c0.1-1.1-0.3-2.2-1-3c-0.7-0.7-1.7-1.1-2.7-1c-1-0.1-2,0.3-2.8,1.1
	c-0.7,0.9-1.1,2-1,3.2v7.3h-2.2v-13.4h2.2v1.9c0.4-0.7,1.1-1.2,1.8-1.6c0.8-0.4,1.6-0.6,2.5-0.6
	C250.1,108.2,251.5,108.7,252.6,109.7z"/>
<path d="M265.1,121.8l-5.2-5.9v5.9h-2.2v-17.9h2.2v10.5l5.1-5.9h3.1l-6.2,6.6l6.3,6.7L265.1,121.8z"/>
<path d="M270.2,105.9c-0.3-0.3-0.4-0.7-0.4-1.1s0.1-0.8,0.4-1.1c0.3-0.3,0.7-0.4,1.1-0.4s0.7,0.2,1,0.4c0.3,0.3,0.4,0.7,0.4,1.1
	s-0.1,0.8-0.4,1.1c-0.3,0.3-0.6,0.4-1,0.4C270.9,106.3,270.5,106.2,270.2,105.9z M272.4,108.5v13.3h-2.2v-13.3H272.4z"/>
<path d="M286.5,109.7c1.1,1.1,1.6,2.7,1.5,4.2v7.8h-2.2v-7.5c0.1-1.1-0.3-2.2-1-3c-0.7-0.7-1.7-1.1-2.7-1c-1-0.1-2,0.3-2.8,1.1
	c-0.7,0.9-1.1,2-1,3.2v7.3h-2.2v-13.4h2.2v1.9c0.4-0.7,1.1-1.2,1.8-1.6c0.8-0.4,1.6-0.6,2.5-0.6
	C284.1,108.2,285.5,108.7,286.5,109.7z"/>
<path d="M300.1,109c0.8,0.4,1.5,1.1,1.9,1.9v-2.4h2.2V122c0,1.1-0.2,2.2-0.8,3.2c-0.5,0.9-1.3,1.7-2.2,2.2c-1,0.6-2.2,0.8-3.4,0.8
	c-1.5,0.1-3.1-0.4-4.4-1.2c-1.1-0.8-1.9-2-2.1-3.4h2.2c0.2,0.8,0.8,1.5,1.5,2c0.8,0.5,1.8,0.8,2.7,0.7c1.1,0.1,2.2-0.4,3-1.1
	c0.8-0.9,1.2-2,1.1-3.2v-2.8c-0.5,0.8-1.1,1.5-1.9,1.9c-0.9,0.5-1.9,0.8-3,0.8c-2.3,0-4.4-1.3-5.5-3.3c-0.6-1.1-0.8-2.3-0.8-3.6
	c0-1.2,0.3-2.5,0.8-3.6c0.5-1,1.3-1.8,2.3-2.4s2.1-0.9,3.2-0.8C298.2,108.3,299.2,108.5,300.1,109z M301.5,112.5
	c-0.4-0.7-0.9-1.3-1.6-1.7c-1.4-0.8-3.1-0.8-4.5,0c-0.7,0.4-1.3,1-1.6,1.7c-0.4,0.8-0.6,1.7-0.6,2.6s0.2,1.8,0.6,2.7
	c0.4,0.7,0.9,1.3,1.6,1.7c0.7,0.4,1.5,0.6,2.2,0.6c0.8,0,1.6-0.2,2.3-0.6c0.7-0.4,1.3-1,1.6-1.7
	C302.3,116.1,302.3,114.1,301.5,112.5L301.5,112.5z"/>
<path d="M136.4,93.5h-22.2L77,37.2v56.3H54.8V2.3H77l37.2,56.5V2.3h22.2V93.5z"/>
<path d="M224,2.3v91.2h-22.2V55.9h-34.6v37.5H145V2.3h22.2V38h34.6V2.3H224z"/>
<path d="M279.4,93.5l-19-34.4h-5.3v34.4h-22.2V2.3h37.3c7.2,0,13.3,1.3,18.4,3.8c4.7,2.2,8.7,5.8,11.4,10.3
	c2.5,4.5,3.8,9.5,3.8,14.6c0.1,5.8-1.7,11.5-5.1,16.2c-3.4,4.8-8.5,8.1-15.1,10.1l21,36.1L279.4,93.5z M255.1,43.3h13.8
	c4.1,0,7.1-1,9.2-3c2-2,3-4.8,3-8.4c0.2-3-0.9-6-3-8.2c-2-2-5.1-3-9.2-3h-13.8L255.1,43.3L255.1,43.3z"/>
<rect x="28" y="26" class="st0" width="19.9" height="67.5"/>
<rect x="1.3" y="51.1" class="st1" width="19.9" height="42.4"/>
<g id="Kazakhstan_2_">
	<g>
		<g>
			<defs>
				<rect id="SVGID_1_" x="304.6" y="2.3" width="30.5" height="17.8"/>
			</defs>
			<clipPath id="SVGID_2_">
				<use xlink:href="#SVGID_1_"  style="overflow:visible;"/>
			</clipPath>
			<rect x="304.6" y="2.3" class="st2" width="30.5" height="17.8"/>
			<g class="st3">
				<defs>
					<rect id="SVGID_3_" x="304.6" y="2.3" width="30.5" height="17.8"/>
				</defs>
				<clipPath id="SVGID_4_">
					<use xlink:href="#SVGID_3_"  style="overflow:visible;"/>
				</clipPath>
				<path class="st4" d="M306.6,14.9c0-0.4,0.3-0.5,0.6-0.5c0.3,0,0.5,0.2,0.5,0.5c0,0.2,0,0.2-0.1,0.4c0,0-0.6,1.2-0.8,1.6
					c0,0.1,0,0.1,0,0.2c0,0.1,0.1,0.3,0.3,0.3c0.1,0,0.3-0.1,0.3-0.3c0-0.2-0.1-0.3-0.2-0.3c-0.1,0-0.2,0-0.2,0.1
					c0,0.1,0,0.1,0.1,0.1c0.1,0,0.1-0.1,0.1-0.1c0,0,0.1,0.1,0.1,0.1c0,0,0.1,0,0.1,0.1c0,0-0.1,0-0.1,0.1c0,0.1,0,0.1-0.1,0.1
					c0,0,0-0.1,0-0.1c-0.1,0-0.3,0-0.3-0.2c0-0.2,0.1-0.3,0.4-0.3c-0.1,0-0.1-0.1-0.1-0.1c0,0,0.1,0,0.1,0c0,0-0.1-0.1-0.1-0.2
					c0,0,0.1,0.1,0.1,0c-0.1-0.2,0-0.4,0.3-0.5c-0.1,0.1-0.2,0.2-0.2,0.4c0,0.4,0.1,0.5,0.1,0.8c0,0.1-0.1,0.2-0.2,0.3v0
					c0.1,0,0.1,0.1,0.2,0.1c-0.2,0.1-0.5,0.1-0.6,0c-0.2,0-0.3-0.1-0.3-0.2c0-0.1-0.1-0.3,0-0.5c0.1-0.2,0.6-1.3,0.8-1.7
					c0-0.1,0.1-0.2,0.1-0.2c0-0.2-0.2-0.3-0.3-0.3c-0.1,0-0.3,0.1-0.3,0.2c0,0.1,0,0.1,0.1,0.1c0.1,0,0.1-0.1,0.1-0.2
					c0.1,0,0.1,0.1,0.1,0.2c0.1,0,0.1,0,0.1,0.1c0,0-0.1,0.1-0.1,0.1c0,0.1-0.1,0.2-0.1,0.2c0-0.1,0-0.2-0.1-0.2
					c-0.1,0-0.2,0-0.2-0.1c0,0.1,0,0.5,0,0.5c0,0.1,0.2,0.1,0.3,0.1c0,0.2-0.1,0.3-0.4,0.2c0.1,0,0.1,0.1,0.1,0.2
					c0,0.1-0.1,0.3-0.2,0.3L306.6,14.9z"/>
				<path class="st4" d="M306.7,14.9c0-0.4-0.3-0.5-0.6-0.5c-0.3,0-0.5,0.2-0.5,0.5c0,0.2,0,0.2,0.1,0.4c0,0,0.6,1.2,0.8,1.6
					c0,0.1,0,0.1,0,0.2c0,0.1-0.1,0.3-0.3,0.3c-0.1,0-0.3-0.1-0.3-0.3c0-0.2,0.1-0.3,0.2-0.3c0.1,0,0.2,0,0.2,0.1
					c0,0.1,0,0.1-0.1,0.1c-0.1,0-0.1-0.1-0.1-0.1c0,0-0.1,0.1-0.1,0.1c0,0-0.1,0-0.1,0.1c0,0,0.1,0,0.1,0.1c0,0.1,0,0.1,0.1,0.1
					c0,0,0-0.1,0-0.1c0.1,0,0.3,0,0.3-0.2c0-0.2-0.1-0.3-0.4-0.3c0.1,0,0.1-0.1,0.1-0.1c0,0-0.1,0-0.1,0c0,0,0.1-0.1,0.1-0.2
					c0,0-0.1,0.1-0.1,0c0.1-0.2,0-0.4-0.3-0.5c0.1,0.1,0.2,0.2,0.2,0.4c0,0.4-0.1,0.5-0.1,0.8c0,0.1,0.1,0.2,0.2,0.3v0
					c-0.1,0-0.1,0.1-0.2,0.1c0.2,0.1,0.5,0.1,0.6,0c0.2,0,0.3-0.1,0.3-0.2c0-0.1,0.1-0.3,0-0.5c-0.1-0.2-0.6-1.3-0.8-1.7
					c0-0.1-0.1-0.2-0.1-0.2c0-0.2,0.2-0.3,0.3-0.3c0.1,0,0.3,0.1,0.3,0.2c0,0.1,0,0.1-0.1,0.1c-0.1,0-0.1-0.1-0.1-0.2
					c-0.1,0-0.1,0.1-0.1,0.2c-0.1,0-0.1,0-0.1,0.1c0,0,0.1,0.1,0.1,0.1c0,0.1,0.1,0.2,0.1,0.2c0-0.1,0-0.2,0.1-0.2
					c0.1,0,0.2,0,0.2-0.1c0,0.1,0,0.5,0,0.5c0,0.1-0.2,0.1-0.3,0.1c0,0.2,0.1,0.3,0.4,0.2c-0.1,0-0.1,0.1-0.1,0.2
					c0,0.1,0.1,0.3,0.2,0.3L306.7,14.9z"/>
				<path class="st4" d="M306.6,18.7c0,0,0.2,0.1,0.2,0.1c0.1-0.1-0.3-0.7-0.3-0.9c0-0.3,0.2-0.4,0.5-0.5c0.2,0,0.5,0,0.5,0
					c-0.1,0.1-0.1,0.1-0.2,0.1c0.1,0.1,0.2,0.2,0.2,0.4c0,0.3-0.1,0.4-0.1,0.7c0,0.2,0.1,0.4,0.1,0.4c-0.3,0-0.4-0.3-0.3-0.5
					c0,0-0.1,0-0.1,0c0-0.1,0-0.1,0.1-0.2c0,0-0.1,0-0.1,0c0-0.1,0-0.1,0.1-0.2c-0.2,0.1-0.4-0.1-0.4-0.3c0-0.1,0.1-0.2,0.2-0.2
					c0,0,0.1,0,0.1,0c0,0,0-0.1,0-0.1c0.1,0,0.1,0.1,0.1,0.1c0,0,0.1,0,0.1,0.1c0,0-0.1,0.1-0.1,0.1c0,0.1,0,0.1-0.1,0.1
					c0,0,0-0.1-0.1-0.1c0,0-0.1,0-0.1,0.1c0,0.1,0,0.1,0.2,0.1c0.1,0,0.2-0.1,0.2-0.3c0-0.2-0.1-0.2-0.3-0.2c-0.2,0-0.3,0.1-0.3,0.2
					c0,0.2,0.3,0.7,0.3,0.9c0,0.1-0.1,0.2-0.3,0.2c-0.2,0-0.3-0.2-0.3-0.2L306.6,18.7z"/>
				<path class="st4" d="M306.6,18.7c0,0-0.2,0.1-0.2,0.1c-0.1-0.1,0.3-0.7,0.3-0.9c0-0.3-0.2-0.4-0.5-0.5c-0.2,0-0.5,0-0.5,0
					c0.1,0.1,0.1,0.1,0.2,0.1c-0.1,0.1-0.2,0.2-0.2,0.4c0,0.3,0.1,0.4,0.1,0.7c0,0.2-0.1,0.4-0.1,0.4c0.3,0,0.4-0.3,0.3-0.5
					c0,0,0.1,0,0.1,0c0-0.1,0-0.1-0.1-0.2c0,0,0.1,0,0.1,0c0-0.1,0-0.1-0.1-0.2c0.2,0.1,0.4-0.1,0.4-0.3c0-0.1-0.1-0.2-0.2-0.2
					c0,0-0.1,0-0.1,0c0,0,0-0.1,0-0.1c-0.1,0-0.1,0.1-0.1,0.1c0,0-0.1,0-0.1,0.1c0,0,0.1,0.1,0.1,0.1c0,0.1,0,0.1,0.1,0.1
					c0,0,0-0.1,0.1-0.1c0,0,0.1,0,0.1,0.1c0,0.1,0,0.1-0.2,0.1c-0.1,0-0.2-0.1-0.2-0.3c0-0.2,0.1-0.2,0.3-0.2c0.2,0,0.3,0.1,0.3,0.2
					c0,0.2-0.3,0.7-0.3,0.9c0,0.1,0.1,0.2,0.3,0.2c0.2,0,0.3-0.2,0.3-0.2L306.6,18.7z"/>
				<path class="st4" d="M306.6,8.6c0-0.4,0.3-0.5,0.6-0.5c0.3,0,0.5,0.2,0.5,0.5c0,0.1,0,0.2-0.1,0.4c0,0-0.6,1.2-0.8,1.6
					c0,0.1,0,0.1,0,0.2c0,0.1,0.1,0.3,0.3,0.3c0.1,0,0.3-0.1,0.3-0.3c0-0.2-0.1-0.3-0.2-0.3c-0.1,0-0.2,0-0.2,0.1
					c0,0.1,0,0.1,0.1,0.1c0.1,0,0.1-0.1,0.1-0.1c0,0,0.1,0.1,0.1,0.1c0,0,0.1,0,0.1,0.1c0,0-0.1,0-0.1,0.1c0,0.1,0,0.1-0.1,0.1
					c0,0,0-0.1,0-0.1c-0.1,0-0.3,0-0.3-0.2c0-0.2,0.1-0.3,0.4-0.3c-0.1,0-0.1-0.1-0.1-0.1c0,0,0.1,0,0.1,0c0,0-0.1-0.1-0.1-0.2
					c0,0,0.1,0.1,0.1,0c-0.1-0.2,0-0.4,0.3-0.5c-0.1,0.1-0.2,0.2-0.2,0.4c0,0.4,0.1,0.5,0.1,0.8c0,0.1-0.1,0.2-0.2,0.3v0
					c0.1,0,0.1,0.1,0.2,0.1c-0.2,0.1-0.5,0.1-0.6,0c-0.2,0-0.3-0.1-0.3-0.2c0-0.1-0.1-0.3,0-0.5c0.1-0.2,0.6-1.3,0.8-1.7
					c0-0.1,0.1-0.2,0.1-0.2c0-0.2-0.2-0.3-0.3-0.3c-0.1,0-0.3,0.1-0.3,0.2c0,0.1,0,0.1,0.1,0.1c0.1,0,0.1-0.1,0.1-0.2
					c0.1,0,0.1,0.1,0.1,0.2c0.1,0,0.1,0,0.1,0.1c0,0-0.1,0.1-0.1,0.1c0,0.1-0.1,0.2-0.1,0.2c0-0.1,0-0.2-0.1-0.2
					c-0.1,0-0.2,0-0.2-0.1c0,0.1,0,0.5,0,0.5c0,0.1,0.2,0.1,0.3,0.1c0,0.2-0.1,0.3-0.4,0.2c0.1,0,0.1,0.1,0.1,0.2
					c0,0.1-0.1,0.3-0.2,0.3L306.6,8.6z"/>
				<path class="st4" d="M306.7,8.6c0-0.4-0.3-0.5-0.6-0.5c-0.3,0-0.5,0.2-0.5,0.5c0,0.1,0,0.2,0.1,0.4c0,0,0.6,1.2,0.8,1.6
					c0,0.1,0,0.1,0,0.2c0,0.1-0.1,0.3-0.3,0.3c-0.1,0-0.3-0.1-0.3-0.3c0-0.2,0.1-0.3,0.2-0.3c0.1,0,0.2,0,0.2,0.1
					c0,0.1,0,0.1-0.1,0.1c-0.1,0-0.1-0.1-0.1-0.1c0,0-0.1,0.1-0.1,0.1c0,0-0.1,0-0.1,0.1c0,0,0.1,0,0.1,0.1c0,0.1,0,0.1,0.1,0.1
					c0,0,0-0.1,0-0.1c0.1,0,0.3,0,0.3-0.2c0-0.2-0.1-0.3-0.4-0.3c0.1,0,0.1-0.1,0.1-0.1c0,0-0.1,0-0.1,0c0,0,0.1-0.1,0.1-0.2
					c0,0-0.1,0.1-0.1,0c0.1-0.2,0-0.4-0.3-0.5c0.1,0.1,0.2,0.2,0.2,0.4c0,0.4-0.1,0.5-0.1,0.8c0,0.1,0.1,0.2,0.2,0.3v0
					c-0.1,0-0.1,0.1-0.2,0.1c0.2,0.1,0.5,0.1,0.6,0c0.2,0,0.3-0.1,0.3-0.2c0-0.1,0.1-0.3,0-0.5c-0.1-0.2-0.6-1.3-0.8-1.7
					c0-0.1-0.1-0.2-0.1-0.2c0-0.2,0.2-0.3,0.3-0.3c0.1,0,0.3,0.1,0.3,0.2c0,0.1,0,0.1-0.1,0.1c-0.1,0-0.1-0.1-0.1-0.2
					c-0.1,0-0.1,0.1-0.1,0.2c-0.1,0-0.1,0-0.1,0.1c0,0,0.1,0.1,0.1,0.1c0,0.1,0.1,0.2,0.1,0.2c0-0.1,0-0.2,0.1-0.2
					c0.1,0,0.2,0,0.2-0.1c0,0.1,0,0.5,0,0.5c0,0.1-0.2,0.1-0.3,0.1c0,0.2,0.1,0.3,0.4,0.2c-0.1,0-0.1,0.1-0.1,0.2
					c0,0.1,0.1,0.3,0.2,0.3L306.7,8.6z"/>
				<path class="st4" d="M306.7,7.6c0,0.4-0.3,0.5-0.6,0.5c-0.3,0-0.5-0.2-0.5-0.5c0-0.1,0-0.2,0.1-0.4c0,0,0.6-1.2,0.8-1.6
					c0-0.1,0-0.1,0-0.2c0-0.1-0.1-0.3-0.3-0.3c-0.1,0-0.3,0.1-0.3,0.3c0,0.2,0.1,0.3,0.2,0.3c0.1,0,0.2,0,0.2-0.1
					c0-0.1,0-0.1-0.1-0.1c-0.1,0-0.1,0.1-0.1,0.1c0,0-0.1-0.1-0.1-0.1c0,0-0.1,0-0.1-0.1c0,0,0.1,0,0.1-0.1c0-0.1,0-0.1,0.1-0.1
					c0,0,0,0.1,0,0.1c0.1,0,0.3,0,0.3,0.2c0,0.2-0.1,0.3-0.4,0.3c0.1,0,0.1,0.1,0.1,0.1c0,0-0.1,0-0.1,0c0,0,0.1,0.1,0.1,0.2
					c0,0-0.1-0.1-0.1,0c0.1,0.2,0,0.4-0.3,0.5c0.1-0.1,0.2-0.2,0.2-0.4c0-0.4-0.1-0.5-0.1-0.8c0-0.1,0.1-0.2,0.2-0.3v0
					c-0.1,0-0.1-0.1-0.2-0.1c0.2-0.1,0.5-0.1,0.6,0c0.2,0,0.3,0.1,0.3,0.2c0,0.1,0.1,0.3,0,0.5c-0.1,0.2-0.6,1.3-0.8,1.7
					c0,0.1-0.1,0.1-0.1,0.2c0,0.2,0.2,0.3,0.3,0.3c0.1,0,0.3-0.1,0.3-0.2c0-0.1,0-0.1-0.1-0.1c-0.1,0-0.1,0.1-0.1,0.2
					c-0.1,0-0.1-0.1-0.1-0.2c-0.1,0-0.1,0-0.1-0.1c0,0,0.1-0.1,0.1-0.1c0-0.1,0.1-0.2,0.1-0.2c0,0.1,0,0.2,0.1,0.2
					c0.1,0,0.2,0,0.2,0.1c0-0.1,0-0.5,0-0.5c0-0.1-0.2-0.1-0.3-0.1c0-0.2,0.1-0.3,0.4-0.2c-0.1,0-0.1-0.1-0.1-0.2
					c0-0.1,0.1-0.3,0.2-0.3L306.7,7.6z"/>
				<path class="st4" d="M306.6,7.6c0,0.4,0.3,0.5,0.6,0.5c0.3,0,0.5-0.2,0.5-0.5c0-0.1,0-0.2-0.1-0.4c0,0-0.6-1.2-0.8-1.6
					c0-0.1,0-0.1,0-0.2c0-0.1,0.1-0.3,0.3-0.3c0.1,0,0.3,0.1,0.3,0.3c0,0.2-0.1,0.3-0.2,0.3c-0.1,0-0.2,0-0.2-0.1
					c0-0.1,0-0.1,0.1-0.1c0.1,0,0.1,0.1,0.1,0.1c0,0,0.1-0.1,0.1-0.1c0,0,0.1,0,0.1-0.1c0,0-0.1,0-0.1-0.1c0-0.1,0-0.1-0.1-0.1
					c0,0,0,0.1,0,0.1c-0.1,0-0.3,0-0.3,0.2c0,0.2,0.1,0.3,0.4,0.3c-0.1,0-0.1,0.1-0.1,0.1c0,0,0.1,0,0.1,0c0,0-0.1,0.1-0.1,0.2
					c0,0,0.1-0.1,0.1,0c-0.1,0.2,0,0.4,0.3,0.5c-0.1-0.1-0.2-0.2-0.2-0.4c0-0.4,0.1-0.5,0.1-0.8c0-0.1-0.1-0.2-0.2-0.3v0
					c0.1,0,0.1-0.1,0.2-0.1c-0.2-0.1-0.5-0.1-0.6,0c-0.2,0-0.3,0.1-0.3,0.2c0,0.1-0.1,0.3,0,0.5c0.1,0.2,0.6,1.3,0.8,1.7
					c0,0.1,0.1,0.1,0.1,0.2c0,0.2-0.2,0.3-0.3,0.3c-0.1,0-0.3-0.1-0.3-0.2c0-0.1,0-0.1,0.1-0.1c0.1,0,0.1,0.1,0.1,0.2
					c0.1,0,0.1-0.1,0.1-0.2c0.1,0,0.1,0,0.1-0.1c0,0-0.1-0.1-0.1-0.1c0-0.1-0.1-0.2-0.1-0.2c0,0.1,0,0.2-0.1,0.2
					c-0.1,0-0.2,0-0.2,0.1c0-0.1,0-0.5,0-0.5c0-0.1,0.2-0.1,0.3-0.1c0-0.2-0.1-0.3-0.4-0.2c0.1,0,0.1-0.1,0.1-0.2
					c0-0.1-0.1-0.3-0.2-0.3L306.6,7.6z"/>
				<path class="st4" d="M306.7,13.8c0,0.4-0.3,0.5-0.6,0.5c-0.3,0-0.5-0.2-0.5-0.5c0-0.1,0-0.2,0.1-0.4c0,0,0.6-1.2,0.8-1.6
					c0-0.1,0-0.1,0-0.2c0-0.1-0.1-0.3-0.3-0.3c-0.1,0-0.3,0.1-0.3,0.3c0,0.2,0.1,0.3,0.2,0.3c0.1,0,0.2,0,0.2-0.1
					c0-0.1,0-0.1-0.1-0.1c-0.1,0-0.1,0.1-0.1,0.1c0,0-0.1-0.1-0.1-0.1c0,0-0.1,0-0.1-0.1c0,0,0.1,0,0.1-0.1c0-0.1,0-0.1,0.1-0.1
					c0,0,0,0.1,0,0.1c0.1,0,0.3,0,0.3,0.2c0,0.2-0.1,0.3-0.4,0.3c0.1,0,0.1,0.1,0.1,0.1c0,0-0.1,0-0.1,0c0,0,0.1,0.1,0.1,0.2
					c0,0-0.1-0.1-0.1,0c0.1,0.2,0,0.4-0.3,0.5c0.1-0.1,0.2-0.2,0.2-0.4c0-0.4-0.1-0.5-0.1-0.8c0-0.1,0.1-0.2,0.2-0.3v0
					c-0.1,0-0.1-0.1-0.2-0.1c0.2-0.1,0.5-0.1,0.6,0c0.2,0,0.3,0.1,0.3,0.2c0,0.1,0.1,0.3,0,0.5c-0.1,0.2-0.6,1.3-0.8,1.7
					c0,0.1-0.1,0.2-0.1,0.2c0,0.2,0.2,0.3,0.3,0.3c0.1,0,0.3-0.1,0.3-0.2c0-0.1,0-0.1-0.1-0.1c-0.1,0-0.1,0.1-0.1,0.2
					c-0.1,0-0.1-0.1-0.1-0.2c-0.1,0-0.1,0-0.1-0.1c0,0,0.1-0.1,0.1-0.1c0-0.1,0.1-0.2,0.1-0.2c0,0.1,0,0.2,0.1,0.2
					c0.1,0,0.2,0,0.2,0.1c0-0.1,0-0.5,0-0.5c0-0.1-0.2-0.1-0.3-0.1c0-0.2,0.1-0.3,0.4-0.2c-0.1,0-0.1-0.1-0.1-0.2
					c0-0.1,0.1-0.3,0.2-0.3L306.7,13.8z"/>
				<path class="st4" d="M306.6,13.8c0,0.4,0.3,0.5,0.6,0.5c0.3,0,0.5-0.2,0.5-0.5c0-0.1,0-0.2-0.1-0.4c0,0-0.6-1.2-0.8-1.6
					c0-0.1,0-0.1,0-0.2c0-0.1,0.1-0.3,0.3-0.3c0.1,0,0.3,0.1,0.3,0.3c0,0.2-0.1,0.3-0.2,0.3c-0.1,0-0.2,0-0.2-0.1
					c0-0.1,0-0.1,0.1-0.1c0.1,0,0.1,0.1,0.1,0.1c0,0,0.1-0.1,0.1-0.1c0,0,0.1,0,0.1-0.1c0,0-0.1,0-0.1-0.1c0-0.1,0-0.1-0.1-0.1
					c0,0,0,0.1,0,0.1c-0.1,0-0.3,0-0.3,0.2c0,0.2,0.1,0.3,0.4,0.3c-0.1,0-0.1,0.1-0.1,0.1c0,0,0.1,0,0.1,0c0,0-0.1,0.1-0.1,0.2
					c0,0,0.1-0.1,0.1,0c-0.1,0.2,0,0.4,0.3,0.5c-0.1-0.1-0.2-0.2-0.2-0.4c0-0.4,0.1-0.5,0.1-0.8c0-0.1-0.1-0.2-0.2-0.3v0
					c0.1,0,0.1-0.1,0.2-0.1c-0.2-0.1-0.5-0.1-0.6,0c-0.2,0-0.3,0.1-0.3,0.2c0,0.1-0.1,0.3,0,0.5c0.1,0.2,0.6,1.3,0.8,1.7
					c0,0.1,0.1,0.2,0.1,0.2c0,0.2-0.2,0.3-0.3,0.3c-0.1,0-0.3-0.1-0.3-0.2c0-0.1,0-0.1,0.1-0.1c0.1,0,0.1,0.1,0.1,0.2
					c0.1,0,0.1-0.1,0.1-0.2c0.1,0,0.1,0,0.1-0.1c0,0-0.1-0.1-0.1-0.1c0-0.1-0.1-0.2-0.1-0.2c0,0.1,0,0.2-0.1,0.2
					c-0.1,0-0.2,0-0.2,0.1c0-0.1,0-0.5,0-0.5c0-0.1,0.2-0.1,0.3-0.1c0-0.2-0.1-0.3-0.4-0.2c0.1,0,0.1-0.1,0.1-0.2
					c0-0.1-0.1-0.3-0.2-0.3L306.6,13.8z"/>
				<path class="st4" d="M306.6,3.7c0,0,0.2-0.1,0.2-0.1c0.1,0.1-0.3,0.7-0.3,0.9c0,0.3,0.2,0.4,0.5,0.5c0.2,0,0.5,0,0.5,0
					c-0.1-0.1-0.1-0.1-0.2-0.1c0.1-0.1,0.2-0.2,0.2-0.4c0-0.3-0.1-0.4-0.1-0.7c0-0.2,0.1-0.4,0.1-0.4c-0.3,0-0.4,0.3-0.3,0.5
					c0,0-0.1,0-0.1,0c0,0.1,0,0.1,0.1,0.2c0,0-0.1,0-0.1,0c0,0.1,0,0.1,0.1,0.2c-0.2-0.1-0.4,0.1-0.4,0.3c0,0.1,0.1,0.2,0.2,0.2
					c0,0,0.1,0,0.1,0c0,0,0,0.1,0,0.1c0.1,0,0.1-0.1,0.1-0.1c0,0,0.1,0,0.1-0.1c0,0-0.1-0.1-0.1-0.1c0-0.1,0-0.1-0.1-0.1
					c0,0,0,0.1-0.1,0.1c0,0-0.1,0-0.1-0.1c0-0.1,0-0.1,0.2-0.1c0.1,0,0.2,0.1,0.2,0.3c0,0.2-0.1,0.2-0.3,0.2c-0.2,0-0.3-0.1-0.3-0.2
					c0-0.2,0.3-0.7,0.3-0.9c0-0.1-0.1-0.2-0.3-0.2c-0.2,0-0.3,0.2-0.3,0.2L306.6,3.7z"/>
				<path class="st4" d="M306.6,3.7c0,0-0.2-0.1-0.2-0.1c-0.1,0.1,0.3,0.7,0.3,0.9c0,0.3-0.2,0.4-0.5,0.5c-0.2,0-0.5,0-0.5,0
					c0.1-0.1,0.1-0.1,0.2-0.1c-0.1-0.1-0.2-0.2-0.2-0.4c0-0.3,0.1-0.4,0.1-0.7c0-0.2-0.1-0.4-0.1-0.4c0.3,0,0.4,0.3,0.3,0.5
					c0,0,0.1,0,0.1,0c0,0.1,0,0.1-0.1,0.2c0,0,0.1,0,0.1,0c0,0.1,0,0.1-0.1,0.2c0.2-0.1,0.4,0.1,0.4,0.3c0,0.1-0.1,0.2-0.2,0.2
					c0,0-0.1,0-0.1,0c0,0,0,0.1,0,0.1c-0.1,0-0.1-0.1-0.1-0.1c0,0-0.1,0-0.1-0.1c0,0,0.1-0.1,0.1-0.1c0-0.1,0-0.1,0.1-0.1
					c0,0,0,0.1,0.1,0.1c0,0,0.1,0,0.1-0.1c0-0.1,0-0.1-0.2-0.1c-0.1,0-0.2,0.1-0.2,0.3c0,0.2,0.1,0.2,0.3,0.2c0.2,0,0.3-0.1,0.3-0.2
					c0-0.2-0.3-0.7-0.3-0.9c0-0.1,0.1-0.2,0.3-0.2c0.2,0,0.3,0.2,0.3,0.2L306.6,3.7z"/>
				<path class="st5" d="M306.3,13.8c0,0-0.1,0-0.1,0c0,0-0.1,0-0.1,0.1C306.1,13.8,306.2,13.8,306.3,13.8
					C306.3,13.8,306.3,13.8,306.3,13.8L306.3,13.8z"/>
				<g class="st6">
					<path class="st7" d="M306.2,13.9L306.2,13.9L306.2,13.9L306.2,13.9c-0.1-0.1,0-0.1,0-0.1c0,0,0.1,0,0.1,0h0l0,0
						C306.3,13.8,306.3,13.8,306.2,13.9C306.2,13.8,306.2,13.9,306.2,13.9L306.2,13.9z"/>
				</g>
				<path class="st4" d="M320.5,14.4c-2.4,0-4.1-1.9-4.2-3.8c0,0-0.1,0-0.1,0c0,0.2,0.1,0.8,0,0.8c-0.1-0.1-0.5-1.2-0.6-1.1
					c-0.1,0.2,0.5,1.5,0.5,1.5c-0.1,0.1-0.8-1.3-0.9-1.2c-0.2,0.4,0.8,1.7,0.8,1.8c0,0.2-0.8-0.7-0.9-0.6c-0.1,0.2,0.8,1,0.9,1
					c0.2,0.2-0.5-0.3-0.6-0.1c0,0.1,0.3,0.4,0.5,0.5c0.2,0.1,0.3,0.1,0.3,0.2c0,0.1-0.4-0.1-0.4,0c0,0.2,0.5,0.2,0.6,0.2
					c0.1,0.1-0.3,0-0.3,0.1c0,0.1,0.4,0.1,0.4,0.2c0,0.1-0.2,0-0.2,0.1c0,0.1,0.4,0.1,0.5,0.1c0.1,0.1-0.3,0,0,0.2
					c0.3,0.2,0.7,0.4,1.3,0.5c0.5,0.1,0.8,0,0.8,0c0,0-0.3,0-0.6,0c-0.4-0.1-0.9-0.3-1.1-0.4c-0.1,0,0.2-0.1,0.1-0.2
					c-0.1-0.1-0.3,0-0.4-0.1c-0.1-0.1,0.1-0.1,0.1-0.1c0,0-0.3-0.1-0.3-0.2c-0.1-0.1,0.1-0.1,0.1-0.1c0,0-0.2-0.1-0.2-0.1
					c0,0,0.2,0,0.1-0.1c-0.1-0.1-0.4-0.1-0.5-0.2c-0.1-0.1,0.2,0,0.2-0.1c-0.1-0.1-0.3-0.2-0.4-0.3c0-0.1,0.2,0,0.2-0.1
					c0-0.1-0.1,0-0.2-0.4c0-0.1,0.2,0,0.2,0l0-0.1c0,0,0.2,0.1,0.5,0.5c0.3,0.4,0.4,0.7,0.7,0.9c0.1,0.1,0.1,0,0.5,0.1
					c0.3,0.2,0.4,0.3,0.8,0.6c0,0,0.3,0,0.9,0.1c0.3,0.1,0.4,0.2,0.4,0.2C320.2,14.7,320.4,14.6,320.5,14.4
					C320.5,14.4,320.5,14.5,320.5,14.4C320.6,14.4,320.5,14.4,320.5,14.4L320.5,14.4z"/>
				<g class="st6">
					<path class="st8" d="M318.6,14.9c-0.1,0-0.3,0-0.4,0c-0.5-0.1-1-0.3-1.3-0.5c-0.1-0.1-0.1-0.1-0.1-0.1c0,0,0.1,0,0.1-0.1
						c0,0,0,0,0,0c0,0-0.1,0-0.2,0c-0.1,0-0.3,0-0.3-0.1l0,0l0,0c0,0,0.1,0,0.1-0.1c0,0,0.1,0,0.1,0c0,0-0.1,0-0.1,0
						c-0.1,0-0.3-0.1-0.3-0.2c0-0.1,0.1-0.1,0.2-0.1c0,0,0.1,0,0.1,0c0,0-0.1,0-0.2-0.1c-0.2,0-0.3-0.1-0.4-0.2c0-0.1,0.1-0.1,0.2,0
						c0,0,0.1,0,0.1,0c0-0.1,0-0.1-0.1-0.1c0,0-0.1,0-0.2-0.1c-0.2-0.1-0.6-0.4-0.6-0.6c0,0,0-0.1,0.1-0.1c0.1,0,0.2,0.1,0.4,0.1
						c0.1,0,0.1,0.1,0.2,0.1c0,0-0.1-0.1-0.1-0.1c-0.5-0.4-0.9-0.8-0.8-1c0.1,0,0.2,0.1,0.4,0.3c0.2,0.1,0.4,0.3,0.4,0.3
						c0,0-0.1-0.1-0.1-0.2c-0.3-0.4-0.9-1.2-0.7-1.6c0.1,0,0.2,0.1,0.4,0.5c0.2,0.3,0.4,0.7,0.5,0.7c0,0-0.1-0.2-0.1-0.4
						c-0.2-0.6-0.4-1-0.3-1.1c0.1,0,0.2,0.3,0.5,0.8c0.1,0.1,0.1,0.2,0.1,0.3c0,0,0-0.1,0-0.2c0-0.2,0-0.4,0-0.5c0,0,0-0.1,0.1-0.1
						c0,0,0,0,0,0c0.2,1.9,1.8,3.8,4.2,3.8c0,0,0.1,0,0.1,0.1l0,0l0,0l0,0l0,0c-0.1,0.1-0.3,0.3-0.3,0.3c0,0-0.1-0.2-0.4-0.2
						c-0.3-0.1-0.6-0.1-0.7-0.1l-0.1,0c0,0-0.1,0-0.1,0l-0.2-0.2c-0.2-0.2-0.3-0.3-0.6-0.4c-0.1-0.1-0.2-0.1-0.3-0.1l-0.1,0
						c0,0-0.1,0-0.1,0c-0.2-0.1-0.3-0.3-0.4-0.5c-0.1-0.1-0.2-0.3-0.3-0.5c-0.3-0.3-0.5-0.5-0.5-0.5l0,0c0,0-0.1,0-0.1,0
						c0,0,0,0,0,0c0,0.2,0.1,0.3,0.1,0.3c0,0,0.1,0,0.1,0.1c0,0-0.1,0-0.1,0l-0.1,0c0,0,0,0-0.1,0c0,0.1,0.2,0.2,0.3,0.3
						c0.1,0,0.1,0.1,0.1,0.1l0,0l0,0c0,0,0,0-0.1,0l-0.1,0c0,0.1,0.2,0.1,0.3,0.2c0.1,0,0.1,0,0.2,0.1c0,0,0,0,0,0c0,0,0,0-0.1,0
						c0,0-0.1,0-0.1,0c0,0,0.1,0,0.1,0.1c0.1,0,0.1,0.1,0.1,0.1c0,0,0,0-0.1,0.1c0,0-0.1,0-0.1,0c0,0,0.1,0.1,0.2,0.1
						c0.1,0,0.1,0.1,0.1,0.1c0,0,0,0-0.1,0.1c0,0,0,0,0,0c0,0.1,0.1,0.1,0.2,0.1c0.1,0,0.1,0,0.2,0l0,0c0,0-0.1,0.1-0.1,0.1
						c0,0-0.1,0-0.1,0c0.2,0.1,0.7,0.4,1.1,0.4c0.1,0,0.3,0,0.4,0c0.1,0,0.1,0,0.1,0l0.1,0c0,0,0,0,0.1,0
						C319.1,14.9,318.9,14.9,318.6,14.9L318.6,14.9z M316.1,13.4C316.1,13.4,316.1,13.5,316.1,13.4c-0.1,0.1,0.1,0.2,0.3,0.2
						c0.1,0,0.2,0,0.2,0.1l0,0l0,0c0,0-0.1,0-0.2,0c0,0-0.1,0-0.1,0c0,0.1,0.2,0.1,0.3,0.1c0.1,0,0.2,0,0.2,0.1c0,0,0,0-0.1,0.1
						c0,0-0.1,0-0.1,0c0,0.1,0.1,0.1,0.2,0.1c0.1,0,0.2,0,0.2,0.1l0,0c0,0,0,0-0.1,0c0,0-0.1,0-0.1,0c0,0,0,0,0.1,0.1
						c0.3,0.1,0.7,0.4,1.3,0.5c0.1,0,0.3,0,0.4,0c0.3,0,0.4-0.1,0.4-0.1l-0.1,0c0,0-0.1,0-0.1,0c-0.1,0-0.3,0-0.4,0
						c-0.4-0.1-0.9-0.3-1.1-0.4c0-0.1,0-0.1,0.1-0.1c0,0,0.1-0.1,0.1-0.1c0,0-0.1,0-0.1,0c-0.1,0-0.2,0-0.2-0.1l0,0c0,0,0,0,0.1-0.1
						c0,0,0,0,0,0c0,0-0.1,0-0.1-0.1c-0.1,0-0.2-0.1-0.2-0.1l0,0c0,0,0,0,0.1,0c0,0,0.1,0,0.1,0c0,0,0,0-0.1,0
						c-0.1,0-0.1-0.1-0.1-0.1c0,0,0-0.1,0.1-0.1c0,0,0,0,0,0c-0.1,0-0.1,0-0.2-0.1c-0.1-0.1-0.3-0.1-0.3-0.2l0,0l0,0
						c0,0,0.1,0,0.1,0l0,0c0,0,0-0.1-0.1-0.1c-0.1-0.1-0.2-0.2-0.3-0.3c0,0,0,0,0-0.1c0,0,0,0,0.1,0l0.1,0c0,0,0,0,0,0
						c0,0,0,0,0-0.1c0,0-0.1-0.1-0.1-0.3c0,0,0,0,0-0.1c0,0,0.2,0,0.2,0l0,0c0,0,0,0,0,0c0,0,0.3,0.1,0.6,0.5
						c0.1,0.2,0.2,0.3,0.3,0.5c0.1,0.2,0.2,0.3,0.4,0.5c0,0,0.1,0,0.1,0l0.1,0c0.1,0,0.1,0,0.3,0.1c0.2,0.2,0.4,0.3,0.6,0.4l0.2,0.2
						c0,0,0,0,0.1,0l0.1,0c0.1,0,0.4,0,0.7,0.1c0.3,0.1,0.4,0.2,0.4,0.3c0,0,0.2-0.1,0.2-0.3c0,0,0,0,0.1,0l0,0l0-0.1l0,0
						c-2.5,0-4.1-1.9-4.2-3.8c0,0,0,0,0,0c0,0,0,0,0,0c0,0.1,0,0.4,0,0.5c0,0.2,0,0.2,0,0.3c0,0-0.1-0.1-0.2-0.3
						c-0.1-0.3-0.3-0.8-0.4-0.8c-0.1,0.1,0.2,0.7,0.3,1.1c0.1,0.4,0.2,0.4,0.1,0.4l0,0c-0.1,0-0.3-0.3-0.5-0.7
						c-0.1-0.2-0.3-0.5-0.3-0.5c-0.1,0.3,0.4,1.1,0.7,1.5c0.1,0.2,0.1,0.2,0.1,0.2l0,0l0,0c-0.1,0-0.2-0.1-0.4-0.3
						c-0.2-0.1-0.3-0.3-0.4-0.3c-0.1,0.2,0.6,0.7,0.8,0.9c0.1,0,0.1,0.1,0.1,0.1c0,0,0,0,0,0.1c0,0-0.1,0-0.2-0.1
						c-0.1-0.1-0.3-0.1-0.4-0.1c0,0,0,0,0,0c0,0.1,0.3,0.4,0.5,0.5c0.1,0.1,0.2,0.1,0.2,0.1c0.1,0,0.1,0,0.1,0.1
						c0,0.1-0.1,0.1-0.2,0C316.2,13.4,316.2,13.4,316.1,13.4L316.1,13.4z"/>
				</g>
				<path class="st4" d="M322.1,15.1C322.1,15.1,322.1,15.2,322.1,15.1c-0.1,0.1-0.1,0.2-0.2,0.2c-0.1,0,0,0.1,0,0.1l-0.2,0
					c-0.4,0.2-0.8,0.3-1.4,0.2c0,0-0.1,0.1-0.2,0.2c-0.1,0.1-0.2,0.1-0.2,0.2c0,0.1,0.1,0.1,0.2,0.1c0.1,0,0.2-0.1,0.2-0.1
					s0,0.1,0.1,0.1c0.1,0,0.2-0.1,0.2-0.1s0.1,0.1,0.2,0c0.1,0,0.2-0.1,0.2-0.1s0,0.1,0.1,0.1c0.1,0,0.3-0.1,0.3-0.1
					s0.1,0.1,0.2,0.1c0.1,0,0.2-0.1,0.2-0.1s0.1,0,0.2,0c0.1,0,0.2-0.1,0.2-0.1s0.1,0.1,0.2,0.1c0.1,0,0.1-0.2,0.1-0.2
					s0.2,0.1,0.4,0c0.1-0.1,0.1-0.2,0.1-0.2s0.6,0.1,0.6-0.3C323.6,15.2,322.6,15.2,322.1,15.1L322.1,15.1z"/>
				<g class="st6">
					<path class="st8" d="M321.1,16.2L321.1,16.2c-0.1,0-0.1-0.1-0.1-0.1c0,0-0.1,0.1-0.2,0.1c-0.1,0-0.2,0-0.2,0
						c0,0-0.1,0.1-0.2,0.1c-0.1,0-0.1-0.1-0.1-0.1c0,0-0.1,0.1-0.2,0.1c-0.1,0-0.1,0-0.2-0.1c0,0,0,0,0-0.1c0-0.1,0.1-0.1,0.1-0.1
						c0,0,0.1,0,0.1-0.1c0.1-0.1,0.2-0.2,0.2-0.2c0.1,0,0.3,0,0.4,0c0.4,0,0.7-0.1,1-0.2l0.2,0c0,0,0-0.1,0-0.1
						c0.1,0,0.1-0.1,0.1-0.2c0,0,0,0,0-0.1c0,0,0,0,0.1,0c0.3,0.1,0.7,0.1,1,0.1c0.5,0,0.5,0,0.5,0.1c0,0.1,0,0.2-0.1,0.2
						c-0.1,0.1-0.3,0.1-0.4,0.1l0,0c-0.1,0-0.1,0-0.1,0c0,0,0,0.2-0.1,0.2c-0.1,0.1-0.4,0-0.4,0c0,0-0.1,0.1-0.1,0.2
						c-0.1,0-0.2,0-0.2-0.1c0,0-0.1,0.1-0.2,0.1c-0.1,0-0.2,0-0.2,0c0,0-0.1,0.1-0.2,0.1c0,0,0,0,0,0c-0.1,0-0.2-0.1-0.2-0.1
						C321.4,16.1,321.2,16.2,321.1,16.2L321.1,16.2z M321,16c0,0,0.1,0.1,0.1,0.1l0,0v0c0.1,0,0.2-0.1,0.2-0.1c0,0,0.1,0.1,0.2,0.1
						c0.1,0,0.2-0.1,0.2-0.1c0,0,0.1,0,0.2,0c0,0,0.1,0,0.1,0c0.1,0,0.2-0.1,0.2-0.1c0,0,0.1,0.1,0.2,0.1c0.1,0,0.2-0.1,0.2-0.1
						c0,0,0.1,0,0.3,0c0.1,0,0.1,0,0.1,0c0.1,0,0.1-0.2,0.1-0.2c0,0,0.1,0,0.2,0l0,0c0.1,0,0.3,0,0.4-0.1c0-0.1,0.1-0.1,0.1-0.2
						c0,0-0.2,0-0.5,0c-0.3,0-0.8,0-1-0.1l0,0c0,0.1-0.1,0.2-0.1,0.2c0,0,0,0,0,0c0,0,0,0,0,0l-0.2,0c-0.4,0.2-0.8,0.3-1.4,0.2
						c0,0-0.1,0.1-0.2,0.2c0,0-0.1,0.1-0.1,0.1c-0.1,0-0.1,0.1-0.1,0.1c0,0,0,0,0,0c0,0,0.1,0,0.1,0c0,0,0,0,0,0
						c0.1,0,0.2-0.1,0.2-0.1c0,0,0,0.1,0.1,0.1c0,0,0,0,0,0c0.1,0,0.2-0.1,0.2-0.1c0,0,0.1,0,0.2,0C320.9,16.1,321,16,321,16L321,16
						z"/>
				</g>
				<path class="st4" d="M320.8,14.7c0,0,0.2-0.1,0.5-0.1c0.6-0.1,0.8-0.1,0.9-0.1c0.5-0.6,0.9-0.6,1.2-0.7c0.3-0.2,0.4-0.6,0.7-0.9
					c0.3-0.4,0.5-0.4,0.5-0.4l0,0.1c0,0,0.2-0.1,0.2,0c0,0.2-0.1,0.3-0.1,0.4c0,0.1,0.2,0,0.2,0c-0.1,0.2-0.2,0.3-0.3,0.3
					c-0.1,0.1,0.2,0,0.1,0.1c-0.1,0.1-0.3,0.2-0.4,0.3c-0.1,0,0.1,0.1,0.1,0.1c0,0-0.3,0.2-0.3,0.2c0,0,0.1,0.1,0,0.1
					c-0.1,0.1-0.3,0.1-0.3,0.1c0,0,0,0.1,0,0.1c-0.1,0.1-0.1,0-0.2,0.1c0,0,0.1,0.1,0,0.2c-0.1,0-0.3,0.1-0.4,0.2
					c0,0-0.3,0.1-0.4,0.1c-0.1,0-0.5,0.1-0.5,0.1c0,0,0.3,0,0.9-0.1c0.3,0,0.4-0.1,0.8-0.2c0.5-0.1-0.1-0.2,0-0.2
					c0.1-0.1,0.5,0,0.5-0.1c0-0.1-0.2-0.1-0.2-0.1c0-0.1,0.5-0.1,0.5-0.2c0-0.1-0.3,0-0.2-0.1c0.1-0.1,0.4-0.1,0.5-0.3
					c0-0.1-0.3,0-0.3-0.1c0,0,0.1-0.1,0.3-0.2c0.2-0.1,0.5-0.4,0.5-0.5c0-0.2-0.7,0.4-0.6,0.2c0-0.1,1-0.9,0.9-1.1
					c-0.1-0.1-0.8,0.7-0.9,0.6c0-0.1,1.1-1.3,0.9-1.7c-0.1-0.1-0.9,1.5-1,1.4c0,0,0.7-1.6,0.6-1.8c-0.1-0.1-0.2,0.2-0.3,0.5
					c-0.1,0.3-0.3,0.6-0.3,0.7c0,0,0-0.6,0-0.8c0-0.1-0.1,0-0.1,0c-0.1,2.1-2.1,3.6-3.7,3.8c-0.4,0.1-0.5,0.3-1,0.5
					c-0.2,0.1-0.4,0.1-0.6,0.2c-0.2,0.1-0.3,0.3-0.4,0.4c0,0.1,0,0.2,0.1,0.2c0,0,0-0.1,0.1-0.1c0,0,0,0,0.1,0
					c0.1,0,0.1-0.1,0.1-0.1s1.1,0,1.6,0c0.1,0,0.2,0,0.3-0.1c0-0.1-0.1,0-0.2,0c-0.3,0-0.8,0-1.1,0c0,0-0.1,0,0-0.1
					c0,0,0.2-0.2,0.2-0.2H320c0,0-0.1,0.1-0.1,0.1c0,0-0.1,0,0,0C320.1,15,320.8,14.7,320.8,14.7L320.8,14.7z"/>
				<g class="st6">
					<path class="st8" d="M319.1,15.8L319.1,15.8C319.1,15.7,319.1,15.7,319.1,15.8c-0.1-0.1-0.1-0.2-0.1-0.2
						c0.1-0.1,0.2-0.3,0.4-0.4c0.1-0.1,0.2-0.1,0.3-0.1c0.1,0,0.2-0.1,0.3-0.1c0.1-0.1,0.3-0.2,0.4-0.2c0.2-0.1,0.4-0.2,0.6-0.3
						c1.7-0.2,3.6-1.8,3.7-3.8c0,0,0.1,0,0.1,0c0,0.1,0,0.4,0,0.5c0,0.1,0,0.3,0,0.3c0,0,0.1-0.3,0.2-0.6l0-0.1
						c0.2-0.3,0.2-0.5,0.3-0.5h0l0,0c0.1,0.1-0.1,0.7-0.4,1.3c-0.1,0.2-0.2,0.4-0.2,0.4c0.1,0,0.4-0.5,0.6-0.8
						c0.3-0.4,0.4-0.6,0.4-0.6c0.2,0.3-0.4,1.2-0.7,1.6c-0.1,0.1-0.1,0.2-0.2,0.2c0.1,0,0.2-0.1,0.3-0.3c0.2-0.2,0.4-0.3,0.5-0.3h0
						l0,0c0.1,0.1-0.3,0.5-0.7,0.9c-0.1,0.1-0.2,0.2-0.2,0.2c0,0,0.1,0,0.2-0.1c0.2-0.1,0.3-0.2,0.4-0.1c0,0.1-0.2,0.3-0.5,0.5
						c-0.1,0-0.1,0.1-0.2,0.1c0,0-0.1,0-0.1,0c0,0,0.1,0,0.1,0c0.1,0,0.1,0,0.2,0l0,0c0,0.1-0.2,0.2-0.3,0.2c-0.1,0-0.1,0-0.2,0.1
						c0,0,0.1,0,0.1,0c0.1,0,0.1,0,0.1,0c0,0.1-0.2,0.1-0.3,0.2c-0.1,0-0.1,0-0.2,0c0,0,0,0,0.1,0c0.1,0,0.2,0,0.1,0.1
						c0,0.1-0.1,0.1-0.3,0.1c-0.1,0-0.2,0-0.2,0c0,0,0,0,0.1,0c0.1,0,0.1,0,0.1,0.1c0,0,0,0.1-0.2,0.1c-0.4,0.1-0.5,0.2-0.8,0.2
						c-0.5,0.1-0.7,0.1-0.8,0.1c-0.1,0-0.1,0-0.1,0c0,0,0.1-0.1,0.4-0.1c0.1,0,0.1,0,0.2,0c0,0,0.1,0,0.1,0c0.1,0,0.2,0,0.2-0.1
						c0.1-0.1,0.2-0.1,0.4-0.2c0,0,0,0,0-0.1c0,0,0-0.1,0-0.1c0,0,0,0,0.1,0l0,0v0c0,0,0,0,0.1,0c0,0,0-0.1,0-0.1c0,0,0,0,0-0.1
						c0,0,0.1,0,0.1-0.1c0.1,0,0.1,0,0.2-0.1c0,0,0,0,0-0.1c0,0,0,0,0.1-0.1c0.1,0,0.1-0.1,0.2-0.1c0,0,0,0,0,0c0,0,0,0,0,0l0,0l0,0
						c0,0,0.1,0,0.1-0.1c0.1-0.1,0.3-0.1,0.3-0.2c0,0,0,0-0.1,0c0,0,0,0-0.1,0l0,0c0,0,0,0,0-0.1c0,0,0,0,0.1-0.1
						c0.1-0.1,0.2-0.1,0.2-0.2c0,0,0,0-0.1,0c-0.1,0-0.1,0-0.1,0c0-0.1,0-0.1,0.1-0.2c0-0.1,0.1-0.1,0.1-0.2c0,0-0.1,0-0.1,0
						l-0.1-0.1c0,0-0.2,0.1-0.5,0.4c-0.1,0.2-0.2,0.3-0.3,0.5c-0.1,0.2-0.2,0.3-0.4,0.5c-0.1,0-0.1,0-0.2,0.1
						c-0.3,0.1-0.6,0.2-1,0.7c0,0-0.1,0-0.2,0c-0.1,0-0.4,0-0.7,0.1c-0.3,0.1-0.5,0.1-0.5,0.1c0,0-0.7,0.3-1,0.5c0.1,0,0.1,0,0.2,0
						l0.2,0c-0.1,0.1-0.2,0.2-0.2,0.3l0,0l0,0c0.3,0,0.8,0,1.1,0l0.1,0c0.1,0,0.2,0,0.2,0c-0.1,0.1-0.2,0.1-0.3,0.1
						c-0.5,0-1.6,0-1.6,0c0,0-0.1,0.1-0.1,0.1c0,0,0,0,0,0c0,0-0.1,0-0.1,0C319.2,15.6,319.2,15.7,319.1,15.8
						C319.2,15.7,319.2,15.8,319.1,15.8L319.1,15.8z M324.8,10.6C324.8,10.6,324.8,10.6,324.8,10.6c-0.2,2-2,3.6-3.7,3.8
						c-0.3,0-0.4,0.1-0.6,0.3c-0.1,0.1-0.2,0.1-0.4,0.2c-0.1,0-0.2,0.1-0.3,0.1c-0.1,0-0.2,0.1-0.3,0.1c-0.2,0.1-0.3,0.3-0.4,0.4
						c0,0,0,0.1,0,0.1c0,0,0,0.1,0,0.1l0,0c0,0,0,0,0,0c0,0,0-0.1,0.1-0.1c0,0,0.1,0,0.1,0c0,0,0,0,0,0c0.1,0,0.1-0.1,0.1-0.1
						c0,0,1.1,0,1.6,0c0.1,0,0.2,0,0.3-0.1c0,0,0,0-0.1,0c0,0-0.1,0-0.1,0l-0.1,0c-0.3,0-0.8,0-1.1,0c0,0,0,0-0.1,0c0,0,0,0,0,0
						c0,0,0.1-0.1,0.2-0.2l-0.1,0l0,0c0,0-0.1,0.1-0.1,0.1c0,0-0.1,0-0.1,0l0,0l0,0c0.2-0.2,0.9-0.5,1-0.5c0,0,0.2-0.1,0.5-0.1
						c0.4-0.1,0.6-0.1,0.7-0.1c0.1,0,0.1,0,0.1,0c0.4-0.5,0.7-0.6,1-0.7c0.1,0,0.1,0,0.2-0.1c0.2-0.1,0.3-0.3,0.4-0.5
						c0.1-0.1,0.2-0.3,0.3-0.5c0.3-0.4,0.5-0.4,0.5-0.4l0.1,0.1c0,0,0.1-0.1,0.1-0.1l0,0c0,0,0,0,0,0c0,0.1,0,0.2-0.1,0.2
						c0,0.1-0.1,0.1-0.1,0.2c0,0,0.1,0,0.1,0c0,0,0,0,0.1,0l0,0c0,0.1-0.1,0.2-0.2,0.3c0,0-0.1,0.1-0.1,0.1c0,0,0,0,0,0
						c0,0,0,0,0.1,0h0l0,0c0,0,0,0,0,0c0,0.1-0.2,0.2-0.3,0.2c-0.1,0-0.1,0-0.1,0.1c0,0,0.1,0.1,0.1,0.1c0,0-0.1,0.1-0.2,0.1
						c0,0-0.1,0.1-0.1,0.1c0,0,0,0,0,0l0,0c-0.1,0.1-0.1,0.1-0.2,0.1c0,0-0.1,0-0.1,0c0,0.1,0,0.1,0,0.2c0,0.1-0.1,0.1-0.1,0.1l0,0
						c0,0,0,0,0,0c0,0,0,0,0,0.1c0,0,0,0.1,0,0.1c0,0,0,0,0,0c-0.1,0-0.3,0.1-0.4,0.2c0,0-0.1,0-0.3,0.1c0,0-0.1,0-0.1,0
						c0,0-0.1,0-0.2,0c-0.1,0-0.3,0-0.3,0.1c0,0,0.2,0,0.9-0.1c0.3,0,0.4-0.1,0.8-0.2c0.2-0.1,0.2-0.1,0.2-0.1c0,0-0.1,0-0.1,0
						c-0.1,0-0.1,0-0.1-0.1l0,0l0,0c0,0,0.1,0,0.2,0c0.1,0,0.2,0,0.2-0.1c0,0,0-0.1-0.1-0.1c-0.1,0-0.1,0-0.1-0.1c0,0,0.1,0,0.2-0.1
						c0.1,0,0.3-0.1,0.3-0.1c0,0-0.1,0-0.1,0c-0.1,0-0.1,0-0.1,0l0,0l0,0c0,0,0.1-0.1,0.2-0.1c0.1,0,0.3-0.1,0.3-0.2
						c0,0-0.1,0-0.1,0c-0.1,0-0.1,0-0.1,0c0-0.1,0-0.1,0.1-0.1c0.1,0,0.1-0.1,0.2-0.1c0.4-0.3,0.5-0.4,0.5-0.5
						c-0.1,0-0.2,0.1-0.3,0.1C325.1,13,325,13,325,13l0,0c0,0,0,0,0-0.1c0,0,0.1-0.1,0.2-0.2c0.3-0.2,0.8-0.7,0.7-0.8
						c-0.1,0-0.3,0.2-0.5,0.3c-0.2,0.2-0.3,0.3-0.4,0.3h0l0,0c0,0,0-0.1,0.2-0.2c0.3-0.4,0.9-1.2,0.8-1.5c0,0-0.2,0.3-0.4,0.6
						c-0.3,0.5-0.5,0.9-0.6,0.9c0,0,0-0.1,0.1-0.5c0.2-0.5,0.5-1.2,0.4-1.3c-0.1,0-0.2,0.3-0.3,0.5l0,0.1c-0.1,0.3-0.2,0.5-0.3,0.6
						c0,0,0,0,0-0.3C324.9,11,324.9,10.7,324.8,10.6C324.8,10.6,324.8,10.6,324.8,10.6L324.8,10.6z"/>
				</g>
				<path class="st5" d="M319.7,15.3C319.7,15.3,319.6,15.3,319.7,15.3c-0.1,0-0.2,0-0.2,0.1C319.5,15.4,319.6,15.4,319.7,15.3
					C319.6,15.4,319.7,15.4,319.7,15.3L319.7,15.3z"/>
				<g class="st6">
					<path class="st7" d="M319.5,15.4L319.5,15.4L319.5,15.4c0-0.1,0-0.1,0-0.1c0,0,0.1,0,0.1,0h0l0,0
						C319.7,15.4,319.7,15.4,319.5,15.4C319.6,15.4,319.6,15.4,319.5,15.4L319.5,15.4z"/>
				</g>
				<path class="st4" d="M321.1,7.3c0.1,0,0.2,0,0.2-0.1c0-0.1,0-0.8,0-0.8S321,6.9,320.9,7C320.9,7.1,321,7.2,321.1,7.3L321.1,7.3z
					"/>
				<path class="st4" d="M321.6,7.4c0.1,0.1,0.2,0,0.2-0.1c0.1-0.1,0.1-0.8,0.1-0.8s-0.4,0.5-0.5,0.7C321.4,7.2,321.5,7.3,321.6,7.4
					L321.6,7.4z"/>
				<path class="st4" d="M322,7.6c0.1,0.1,0.2,0,0.3-0.1c0.1-0.1,0.3-0.8,0.3-0.8s-0.5,0.4-0.6,0.6C321.9,7.5,321.9,7.6,322,7.6
					L322,7.6z"/>
				<path class="st4" d="M322.4,8c0.1,0.1,0.2,0.1,0.3,0c0.1-0.1,0.4-0.7,0.4-0.7s-0.6,0.3-0.7,0.4C322.4,7.8,322.3,7.9,322.4,8
					L322.4,8z"/>
				<path class="st4" d="M322.8,8.4c0.1,0.1,0.2,0.1,0.3,0.1c0.1-0.1,0.6-0.6,0.6-0.6s-0.6,0.2-0.8,0.3
					C322.7,8.2,322.7,8.3,322.8,8.4L322.8,8.4z"/>
				<path class="st4" d="M323,8.8c0.1,0.1,0.2,0.1,0.2,0.1c0.1-0.1,0.7-0.5,0.7-0.5s-0.7,0.1-0.8,0.1C323,8.6,322.9,8.7,323,8.8
					L323,8.8z"/>
				<path class="st4" d="M323.1,9.3c0,0.1,0.1,0.2,0.2,0.1c0.1,0,0.7-0.3,0.7-0.3s-0.7-0.1-0.8,0C323.2,9.1,323.1,9.2,323.1,9.3
					L323.1,9.3z"/>
				<path class="st4" d="M323.2,9.8c0,0.1,0.1,0.2,0.2,0.2c0.1,0,0.8-0.2,0.8-0.2s-0.7-0.2-0.8-0.2C323.3,9.6,323.2,9.7,323.2,9.8
					L323.2,9.8z"/>
				<path class="st4" d="M323.1,10.3c0,0.1,0,0.2,0.2,0.2c0.1,0,0.8,0,0.8,0s-0.6-0.3-0.7-0.3C323.3,10.2,323.2,10.2,323.1,10.3
					L323.1,10.3z"/>
				<path class="st4" d="M323,10.8c-0.1,0.1,0,0.2,0.1,0.2c0.1,0.1,0.8,0.1,0.8,0.1s-0.5-0.4-0.7-0.5C323.1,10.7,323,10.7,323,10.8
					L323,10.8z"/>
				<path class="st4" d="M322.8,11.3c-0.1,0.1,0,0.2,0.1,0.3c0.1,0.1,0.8,0.3,0.8,0.3s-0.4-0.5-0.6-0.6
					C322.9,11.2,322.8,11.2,322.8,11.3L322.8,11.3z"/>
				<path class="st4" d="M322.4,11.7c-0.1,0.1-0.1,0.2,0,0.3c0.1,0.1,0.7,0.4,0.7,0.4s-0.3-0.6-0.4-0.7
					C322.6,11.6,322.5,11.6,322.4,11.7L322.4,11.7z"/>
				<path class="st4" d="M322,12c-0.1,0.1-0.1,0.2-0.1,0.3c0.1,0.1,0.6,0.6,0.6,0.6s-0.2-0.6-0.3-0.8C322.2,12,322.1,11.9,322,12
					L322,12z"/>
				<path class="st4" d="M321.6,12.2c-0.1,0.1-0.1,0.2-0.1,0.2c0.1,0.1,0.5,0.7,0.5,0.7s-0.1-0.7-0.1-0.8
					C321.8,12.2,321.7,12.2,321.6,12.2L321.6,12.2z"/>
				<path class="st4" d="M319.1,12c-0.1-0.1-0.2,0-0.3,0.1c-0.1,0.1-0.3,0.8-0.3,0.8s0.5-0.4,0.6-0.6
					C319.2,12.2,319.2,12.1,319.1,12L319.1,12z"/>
				<path class="st4" d="M318.7,11.7c-0.1-0.1-0.2-0.1-0.3,0c-0.1,0.1-0.4,0.7-0.4,0.7s0.6-0.3,0.7-0.4
					C318.8,11.9,318.8,11.8,318.7,11.7L318.7,11.7z"/>
				<path class="st4" d="M318.4,11.3c-0.1-0.1-0.2-0.1-0.3-0.1c-0.1,0.1-0.6,0.6-0.6,0.6s0.6-0.2,0.8-0.3
					C318.4,11.5,318.5,11.4,318.4,11.3L318.4,11.3z"/>
				<path class="st4" d="M318.2,10.8c-0.1-0.1-0.2-0.1-0.2-0.1c-0.1,0.1-0.7,0.5-0.7,0.5s0.7-0.1,0.8-0.1
					C318.2,11,318.2,10.9,318.2,10.8L318.2,10.8z"/>
				<path class="st4" d="M318,10.3c0-0.1-0.1-0.2-0.2-0.1c-0.1,0-0.7,0.3-0.7,0.3s0.7,0.1,0.8,0C318,10.5,318,10.5,318,10.3
					L318,10.3z"/>
				<path class="st4" d="M318,9.8c0-0.1-0.1-0.2-0.2-0.2c-0.1,0-0.8,0.2-0.8,0.2s0.7,0.2,0.8,0.2C317.9,10,318,10,318,9.8L318,9.8z"
					/>
				<path class="st4" d="M318,9.3c0-0.1,0-0.2-0.1-0.2c-0.1,0-0.8,0-0.8,0s0.6,0.3,0.7,0.3C317.9,9.5,318,9.4,318,9.3L318,9.3z"/>
				<path class="st4" d="M318.2,8.8c0.1-0.1,0-0.2-0.1-0.2c-0.1-0.1-0.8-0.1-0.8-0.1s0.5,0.4,0.7,0.5C318,9,318.1,8.9,318.2,8.8
					L318.2,8.8z"/>
				<path class="st4" d="M318.4,8.4c0.1-0.1,0-0.2-0.1-0.3c-0.1-0.1-0.8-0.3-0.8-0.3s0.4,0.5,0.6,0.6C318.2,8.5,318.3,8.5,318.4,8.4
					L318.4,8.4z"/>
				<path class="st4" d="M318.7,8c0.1-0.1,0.1-0.2,0-0.3c-0.1-0.1-0.7-0.4-0.7-0.4s0.3,0.6,0.4,0.7C318.5,8,318.6,8.1,318.7,8
					L318.7,8z"/>
				<path class="st4" d="M320.6,7.5c1.3,0,2.3,1,2.3,2.3c0,1.3-1,2.3-2.3,2.3c-1.3,0-2.3-1-2.3-2.3C318.3,8.5,319.3,7.5,320.6,7.5
					L320.6,7.5z"/>
				<path class="st4" d="M320.6,7.2c0.1,0,0.2-0.1,0.2-0.2c0-0.1-0.2-0.8-0.2-0.8s-0.2,0.7-0.2,0.8C320.4,7.1,320.4,7.2,320.6,7.2
					L320.6,7.2z"/>
				<path class="st4" d="M321.1,12.4c-0.1,0-0.2,0.1-0.1,0.2c0,0.1,0.3,0.7,0.3,0.7s0.1-0.7,0-0.8C321.3,12.4,321.2,12.4,321.1,12.4
					L321.1,12.4z"/>
				<path class="st4" d="M320.6,12.4c-0.1,0-0.2,0.1-0.2,0.2c0,0.1,0.2,0.8,0.2,0.8s0.2-0.7,0.2-0.8
					C320.8,12.5,320.7,12.4,320.6,12.4L320.6,12.4z"/>
				<path class="st4" d="M320.1,12.4c-0.1,0-0.2,0-0.2,0.1c0,0.1,0,0.8,0,0.8s0.3-0.6,0.3-0.7C320.2,12.5,320.2,12.4,320.1,12.4
					L320.1,12.4z"/>
				<path class="st4" d="M319.6,12.2c-0.1-0.1-0.2,0-0.2,0.1c-0.1,0.1-0.1,0.8-0.1,0.8s0.4-0.5,0.5-0.7
					C319.7,12.4,319.7,12.3,319.6,12.2L319.6,12.2z"/>
				<path class="st4" d="M319.1,7.6c0.1-0.1,0.1-0.2,0.1-0.3c-0.1-0.1-0.6-0.6-0.6-0.6s0.2,0.6,0.3,0.8C318.9,7.7,319,7.7,319.1,7.6
					L319.1,7.6z"/>
				<path class="st4" d="M319.6,7.4c0.1-0.1,0.1-0.2,0.1-0.2c-0.1-0.1-0.5-0.7-0.5-0.7s0.1,0.7,0.1,0.8
					C319.4,7.4,319.4,7.5,319.6,7.4L319.6,7.4z"/>
				<path class="st4" d="M320.1,7.3c0.1,0,0.2-0.1,0.1-0.2c0-0.1-0.3-0.7-0.3-0.7s-0.1,0.7,0,0.8C319.9,7.2,319.9,7.3,320.1,7.3
					L320.1,7.3z"/>
			</g>
		</g>
	</g>
</g>
</svg>
