<svg version="1.2" xmlns="http://www.w3.org/2000/svg" viewBox="0 0 3000 2000" width="3000" height="2000">
	<style>
		.s0 { fill: #0c1756 } 
		.s1 { fill: #323197 } 
	</style>
	<path class="s0" d="m394.09 1357.14c0.05-0.17 0.19-0.42 0.36-0.71 0.28-0.5 0.64-1.13 0.89-1.97l0.15-0.53 1.35 0.93 4.22-4.29-1-0.96 0.16-0.1q2.43-1.45 3.27-3.97l0.17-0.52-0.05-1.37q0.26-0.52 0.48-0.98 0.29-0.66 0.6-1.16l1.33-2.08-1.43-1.38-0.01-0.03q0.05-0.27 0.09-0.52 0.03-0.24 0.08-0.46l0.62-1.31-0.73-1.33c-0.15-0.28-0.3-0.63-0.45-0.97-0.23-0.5-0.45-1-0.67-1.41l-0.84-1.54-1.76-0.02c-0.21 0-0.43-0.05-0.8-0.13-0.51-0.1-1.15-0.23-1.95-0.24l-0.92-0.01-0.77 0.51-0.23 0.15-3.75-0.04-0.76 1.61-0.13 0.14c-0.34 0.34-0.86 0.86-1.23 1.66l-0.69 1.47 0.84 1.38c0.24 0.38 0.53 0.86 0.57 0.99 0 0 0 0.11-0.07 0.38l-0.64 2.38 2.13 1.05 0.21 0.2q0.15 0.15 0.36 0.34c-0.05 0.24-0.15 0.56-0.23 0.81-0.31 1.03-0.76 2.51-0.36 4.23-0.16 0.95-0.15 1.98 0.1 2.95l-0.29-0.02c-1.61-0.11-3 0.53-4.01 0.99l-0.12 0.05c-1.41-0.66-2.38-1.2-3.04-2q0.09-0.36 0.22-0.63l0.9-1.94-3.16-3.05q-0.37-1.49-0.97-2.81 0.09-0.64 0.09-1.22l0.12-0.17q0.29-0.03 0.57-0.07c0.49-0.06 0.98-0.12 1.29-0.12l5.36 0.06-2.75-4.61c-1.36-2.25-3.34-2.78-4.66-3.13q-0.38-0.1-0.78-0.23l-1.18-0.41-1.13 0.55q-0.44 0.22-0.8 0.45c-0.31 0.18-0.45 0.26-0.8 0.38l-2.48 0.79 0.43 2.56c0.16 0.92-0.19 2.1-0.56 3.35q-0.29 0.95-0.51 1.88l-0.2 0.88 0.32 0.84q0.31 0.84 0.62 1.71c2.09 5.81 4.92 13.65 13.53 13.91l1.03 0.99 3.8 0.06z"/>
	<path class="s1" d="m2865.95 946.92c-0.02-2.71-0.69-5.09-1.33-7.4-0.34-1.21-0.66-2.36-0.88-3.52l-0.13-0.69-0.43-0.57c-4.09-5.37-10.7-5.9-16.02-6.33q-0.57-0.04-1.14-0.09-0.25-0.41-0.52-0.81-0.63-0.95-1.08-1.76l-0.87-1.66-1.86 0.05c-0.78 0.02-1.25 0.02-1.62-0.02q-0.58-1.51-1.68-2.9l0.45-0.35-0.01-1.48c-0.01-0.87-0.13-1.68-0.23-2.4-0.08-0.59-0.16-1.15-0.17-1.62l-0.02-1.85-1.66-0.81c-0.96-0.47-1.93-1.02-2.96-1.6q-0.9-0.51-1.84-1.03c0.03-0.72 0.26-1.48 0.7-2.78l0.74-2.21-1.96-1.27-0.04-0.03-0.03-3.32-2.05-0.67c-1.88-0.61-3.9-1.6-5.85-2.55l-1.08-0.53-1.15 0.37c-0.26 0.09-0.74 0.15-1.2 0.21l-0.07 0.01q-0.08-0.22-0.14-0.43c-0.41-1.28-0.63-1.97-0.65-2.95l1.14-1.51 1.03 0.5 1.67-0.86c2.07-1.07 4.21-2.17 6.13-3.96l2.24-2.09-2.14-2.2q-0.24-0.26-0.23-0.3c-0.05-0.31 0.5-1.41 0.8-2 0.69-1.36 1.55-3.05 1.5-5.05l-0.08-2.9-17.55-0.1-0.82 1.73c-0.79 1.69-0.55 3.12-0.07 4.23q-0.15 0.17-0.31 0.34l-0.12 0.04-0.1 0.03-1.5 0.05-0.85 1.6c-0.06 0.1-0.25 0.36-0.38 0.53q-0.26 0.33-0.53 0.73c-2.85 2.06-4.65 3.88-6.25 5.49-2.92 2.96-4.86 4.92-12.29 6.65l-1.18 0.28-0.66 1.03c-1.01 1.58-0.67 3.13-0.49 3.97l0.01 0.07q-0.38 0.52-0.72 1.01c-0.42 0.57-0.83 1.13-1.32 1.78l-0.69 0.91q-0.37-0.52-0.81-1.04l-0.84-1.01-1.31-0.06c-1.44-0.08-3.78-0.02-5.61 0.38l-0.84 0.18-0.62 0.61q-0.39 0.38-0.97 0.77c0.17-1.19 0.03-2.67-1.14-4.18l-0.98-1.27-1.59 0.11c-1.96 0.13-4.03 0.31-5.97 0.53-1.42-0.89-2.92-1.68-4.81-2.17l-0.6-0.15-0.61 0.09c-0.97 0.15-1.87 0.43-2.66 0.68-0.97 0.3-1.68 0.51-2.23 0.51h-0.04c-0.52-0.51-1.08-1.11-1.46-1.65l-0.48-0.7-0.78-0.34c-4.39-1.93-9.58-1.93-13.53 0.01l-1.71 0.84v0.24l-1.31 0.42-0.03 0.01c-1.03-1.19-2.73-2.2-5.41-2.09-0.93-1.34-2.25-2.63-4.26-3.39-0.18-0.46-0.05-1.1 0.44-2.81l0.32-1.13-0.08-0.6c-0.57-4.49-2.93-8.41-5-11.88q-0.72-1.18-1.36-2.29c0-2.08-0.52-3.88-1.6-5.59l-0.73-1.16-1.35-0.2c-3.04-0.46-5.36-1.61-6.06-3q-0.3-0.62-0.2-1.43l2.87 2.77-0.11-6.29 0.85-0.84-0.23-1.5c-0.81-5.44-5.08-8.7-8.2-11.07l-0.49-0.37-0.59-0.15c-1.66-0.42-3.17-0.47-4.65-0.47l0.02-0.59-0.89-0.86q-0.12-0.13-0.22-0.3c-0.23-0.33-0.52-0.75-0.91-1.12l-0.86-0.83-1.2-0.01c-0.28 0-0.77-0.07-1.24-0.13q-0.86-0.13-1.86-0.2c-0.52-0.3-0.99-0.77-1.69-1.48q-0.57-0.59-1.2-1.17l-0.41-0.36-0.51-0.2q-1.87-0.72-3.64-1.31c-3.85-1.3-7.18-2.42-9.71-5.6l-0.77-0.98-1.24-0.14c-2.93-0.33-4.91 1.62-6.08 2.78l-0.08 0.08c-0.72 0.08-1.58 0.1-2.47 0.1-1.93-2.07-3.43-3.93-4.66-6.24 0.04-0.17 0.15-0.42 0.39-0.89 0.24-0.48 0.53-1.07 0.76-1.79l0.15-0.45v-0.48c0-2.63-1.01-5.11-1.9-7.3-1.49-3.68-1.97-5.34-0.59-6.91l0.91-1.04-0.2-1.37c-0.25-1.68-1.06-2.93-1.71-3.94l-0.42-0.65-0.33-0.29c-1.58-1.36-2.86-2.94-4.22-4.6-1.67-2.04-3.39-4.15-5.77-6.01l-0.02-0.02c-1.09-1.98-2.64-3.67-4.03-5.19-1.07-1.17-2.09-2.28-2.77-3.36q-0.24-1.28-0.49-2.64c-0.2-1.12-0.41-2.24-0.61-3.27l-0.18-0.92-0.67-0.65c-1.17-1.14-2.26-2.4-3.42-3.73-3.73-4.3-7.93-9.14-14.92-9.42-4.83-4.76-8.85-5.43-12.75-6.08-1.91-0.31-3.73-0.62-5.81-1.4l-2.59-1.83 0.06-0.23q-0.31-0.08-0.6-0.15l-0.55-0.39-0.2 0.2-0.08-0.02c-2.83-0.72-5.74-1.46-9.45-0.77l-0.92 0.17-0.66 0.66-0.26 0.25-0.14-0.14h-0.14c-0.19-0.48-0.43-1.01-0.81-1.52l-0.88-1.19-1.37-0.02-0.25-0.18c-0.72-0.52-2.05-1.48-4.15-1.18l-0.99 0.15-0.48 0.48-2.2-0.02 0.09 3.11c0.02 0.64 0.16 1.25 0.28 1.78l0.04 0.16c-0.41 0.77-1.2 1.52-2.09 2.36-1.18 1.12-2.6 2.46-3.5 4.31l-0.01 0.01c-4.31-0.43-7.93-1.9-11.56-3.51l-1.05-0.46-1.09 0.35c-0.33 0.11-0.62 0.16-1 0.24-0.46 0.08-1.03 0.19-1.72 0.41l-1.53 0.5-0.44 1.54c-0.8 2.87-1.11 6-0.94 9.55-1.84 2.75-5.76 5.26-9.05 6.49-0.61 0.03-1.23-0.2-2.3-0.61q-0.91-0.36-2.1-0.72l-0.4-0.11h-1.16c-1.46 0.01-2.5 0.02-3.53-0.45l-1.23-0.56-1.23 0.55c-0.65 0.29-1.57 0.24-2.64 0.19-1.23-0.07-2.64-0.13-4.14 0.28l-0.84 0.24-0.58 0.64q-0.4 0.45-0.79 0.93c-0.45 0.56-0.92 1.14-1.19 1.23-2.82 0.83-4.79-0.58-8.04-3.15-1.19-0.94-2.42-1.91-3.78-2.74l-0.54-0.33-10.11-1.31-0.97 0.72q-0.28 0.21-0.61 0.41l-1.51-0.01c-0.35-0.16-0.89-0.35-1.54-0.35l-1.26-0.01-2.13 2.13 0.03 1.29c0.01 0.48-0.05 1.05-0.11 1.65v0.06c-5.04 0.83-9.99 1.43-14.85 0.96q0.15-0.45 0.31-0.9c1.09-3.06 1.56-5.45-1.58-10.67l-0.69-1.15 0.03-0.08 0.7-1.29-0.71-1.34c-0.04-0.1-0.1-0.41-0.15-0.63-0.1-0.5-0.23-1.11-0.47-1.78l-0.71-1.97h-0.21l-0.04-1.37-0.35-0.34-0.05-2.03h-1.03l-0.03-1.14-2.68-0.23c-4.23-0.36-7.98 0.94-11.29 2.09-2.87 1-5.4 1.89-8.1 1.81 0.06-0.72 0.24-1.48 0.43-2.34 0.25-1.09 0.52-2.29 0.6-3.62 1.98-3.36 5.46-10.34 4.06-16.02-0.61-2.47-2.09-4.46-4.27-5.76l-2.56-1.52-1.54 2.55q-0.2 0.35-0.41 0.7-0.21 0.36-0.37 0.63c-2.23-1.56-4.68-2.46-7.12-3.24v-0.12l-0.07-2.66-2.64-0.25c-1.5-0.14-2.81-0.7-3.78-1.62l-0.34-0.32-0.41-0.2c-2.41-1.16-4.95-1.82-7.41-2.46q-1.59-0.41-3.05-0.85l-1.32-0.4-1.17 0.74c-3.69 2.36-3.81 6.01-3.9 8.68q-0.02 0.67-0.06 1.3-0.93-0.05-1.89-0.13c-2.64-0.19-5.36-0.4-8.25 0.15l-2.5 0.47 0.06 2.55c0.03 1.27-0.01 2.55-0.06 3.9-0.06 1.38-0.11 2.8-0.07 4.26l0.04 1.59 1.34 0.86c2.78 1.77 2.25 5.38 1.19 10.28l-0.03 0.16h-1.01l-0.91 1.23q-0.66 0.87-1.52 1.84-0.42 0.48-0.84 0.98l-2.2-0.01-0.34 0.33-2.51-0.01 0.01 0.68-4.8-0.04 0.04 1.99q-0.2 0.04-0.34 0.05l-1.99-0.01-0.79 1.83c-0.89 2.08-0.92 4.12-0.85 5.98l-1.18-0.01-0.04-1.7-6.27-0.04c-0.86-1.6-1.64-3.18-2.22-4.83l-1.59-4.51-1.27 1.28c-4.62-9.46-9.44-19.03-14.12-28.32-3.83-7.59-7.79-15.44-11.56-23.1l-0.02-0.03c-5.24-10.31-9.59-18.81-13.76-26.71l-1.04-1.97-0.52 0.1c-0.74-1.56-1.6-3.11-2.43-4.62-1.59-2.87-3.08-5.59-3.72-8.21l-0.2-0.82-0.59-0.59c-1.76-1.77-2.89-4.29-4.08-6.96q-0.12-0.27-0.24-0.54l1.01 0.01-2.35-4.46q-0.13-0.22-0.18-0.39c-0.18-0.43-0.44-1.07-1.1-1.72l-0.86-0.84h-0.26l-0.06-0.11c-1.89-3.67-3.85-7.45-6.63-10.89-9.28-18.12-19.6-35.59-31.06-54.6l0.4 0.01-2.19-4.39c-1.58-3.18-3.29-6.22-4.94-9.17-1.09-1.94-2.12-3.78-3.11-5.65l-1.93-3.62-0.39 0.39c-7.51-13.32-14.83-24.83-22.32-35.09-8.27-15.29-19.88-29.09-36.56-43.45-7.31-6.03-14.9-12-22.23-17.78-15.9-12.54-32.34-25.49-47-39.71-1.9-2.97-2.86-5.55-3.12-8.32l-0.08-0.89-0.56-0.71q-0.56-0.69-1.21-1.46c-0.98-1.15-2.12-2.49-2.86-3.78q0.5 0.09 1.04 0.15 0.41 0.25 0.81 0.49c0.39 0.24 0.79 0.48 1.27 0.8l0.55 0.36 0.65 0.11c1.07 0.17 2.11 0.07 3.02-0.15 0.74 1.28 1.79 2.52 3.68 3.18l1.53 0.54 4.58-3.53c0.86-0.19 1.58-0.56 2.16-0.85l1.29-0.65 0.3-1.42c0.17-0.83 0.24-1.55 0.3-2.18q0.03-0.2 0.04-0.38c1.9-1.31 3.61-2.97 4.89-4.78l0.43-0.6 0.1-0.72c0.17-1.2 0.13-2.34 0.11-3.33-0.06-2.01-0.02-2.78 0.69-3.47l1.34-1.32-0.61-1.79c-0.1-0.31-0.19-0.99-0.27-1.59-0.21-1.56-0.46-3.46-1.52-5.05q0.93-0.51 1.85-0.97l1.73-0.88-0.04-1.01 0.32-0.35-0.06-1.25c-0.03-0.75-0.17-1.43-0.29-2.02-0.09-0.41-0.17-0.79-0.18-1.06l-0.13-2.99-2.99 0.12c-3.46 0.15-6.24 1.8-8.69 3.25q-0.64 0.4-1.29 0.76-0.65 0.06-1.24 0.14c-0.47 0.06-0.95 0.15-1.25 0.13l-2.38-0.03-0.57 2.31c-0.55 2.24-1.67 3.68-3.4 5.5l-5.74-0.08-0.78 0.54c-0.52 0.35-1.12 0.79-1.73 1.23q-0.42 0.32-0.83 0.61c-5.41 0.03-10-1.1-14.62-3.62l-2.02-1.1-1 1.05-1.86-0.02-0.21 2.81c-0.05 0.6-0.3 1.41-0.58 2.27-0.37 1.18-0.8 2.52-0.87 3.95l-0.07 1.34 0.53 0.52c-6.8 3.3-13.78 6.57-20.56 9.74-5.02 2.35-10.2 4.77-15.34 7.22-0.48-0.15-1.02-0.42-1.61-0.72-0.74-0.37-1.57-0.8-2.53-1.11l-1.1-0.36-1.06 0.47c-1.6 0.71-3.08 1.51-4.51 2.28-1.4 0.75-2.73 1.46-4.13 2.08l-3.19 1.43 1.9 2.94c0.93 1.43 1.94 2.87 2.92 4.25 0.78 1.1 1.58 2.23 2.32 3.34l0.02 0.51c-1.07 1.21-2.72 1.97-4.58 2.83l-0.25 0.12-0.47 0.27c-1.18 0.84-2.29 1.73-3.37 2.6-2.27 1.83-4.42 3.56-6.87 4.46l-0.7 0.26-0.5 0.56c-2.59 2.91-5.86 5.8-9.26 8.21-0.52-0.68-1.19-1.33-2.11-1.82l-0.72-0.37-0.81 0.03c-3.07 0.13-7.44-0.17-10.62-0.39l-3.52-0.24-0.54 2.55q-0.15 0.74-0.28 1.47c-0.24 1.25-0.46 2.44-0.85 3.42l-0.17 0.08q-0.55-0.1-1.02-0.17c-0.56-0.08-1.04-0.16-1.58-0.3l-2.79-0.72-0.83 2.76c-0.71 2.36-1.42 4.93-2.12 7.5-2.81-0.39-5.67-0.94-8.45-1.47l-3.01-0.58-0.51 3.02c-0.29 1.72-0.59 3.36-0.88 4.99-0.3 1.62-0.59 3.24-0.88 4.94l-0.26 1.53 1.11 1.1q0.53 0.52 1.09 0.87-1.65 4.12-3.08 8.17l-3.21-1.23q0.05-0.42 0.04-0.85l-0.08-2.89-1.34-0.01-0.02-0.01-0.12-4.72-1.6-0.81-0.15-0.07 1.34-2.85-3.72-0.78c-0.83-0.17-1.58-0.35-2.33-0.52-0.78-0.18-1.57-0.37-2.45-0.55l-2.68-0.56-0.8 2.63c-0.36 1.17-0.62 2.25-0.83 3.35l-0.1-0.01h-0.01q0.04-0.61 0.05-1.21c0.05-1.28 0.1-2.48 0.23-3.77l0.23-2.5-2.41-0.68c-3.76-1.06-7.64-2.15-11.51-2.89l-1.77-0.34-1.13 1.41c-1.13 1.41-2.1 2.94-3.03 4.42l-0.05 0.07c-2.64-1.71-5.8-3.26-9.73-3.33l-2.37-0.05-0.59 2.3c-0.33 1.29-0.57 2.56-0.8 3.79q-0.06 0.32-0.12 0.65l-0.13-0.05-3.33-1.13-1.35 7.77q-0.98 1.09-2.02 2.15-0.57-0.29-0.95-0.56c0.53-1.61 1.18-3.61 0.82-5.92l-0.25-1.52-1.36-0.69c-0.65-0.33-1.3-0.48-1.83-0.59-1.62-2.02-4.19-2.7-6.15-3.21l-0.04-0.01q0.13-0.39 0.25-0.79c0.51-1.58 1.04-3.22 1.28-5.09l0.24-1.77q0.31-0.05 0.65-0.12l2.15-0.42 0.25-2.18c0.12-1.06 0.41-2.22 0.73-3.44 0.54-2.16 1.14-4.51 0.95-6.95 1.74-0.37 3.58-0.84 5.05-1.77l2.63-1.65-1.75-2.57c-0.2-0.3-0.41-0.77-0.63-1.26q-0.07-0.18-0.16-0.35 0.25-0.43 0.47-0.85c4.08 0.79 8.05 1.41 12.86 2.09l2.81 0.4 0.56-2.78c1.5-7.45 2.41-14.91 3.17-21.85l0.29-2.58-2.51-0.65q-0.87-0.22-1.57-0.33l-0.05-1.83-2.89-0.03c-0.27 0-0.74-0.07-1.2-0.14-0.75-0.1-1.6-0.23-2.53-0.24l-1.29-0.01-2.72 2.82 0.99 1.92q0.16 0.32 0.33 0.57c-0.84 1.05-2.52 1.65-4.92 2.4l-2.91 0.92-0.07 2.11q0 0.16 0 0.32l-0.03-0.03-0.74-0.47-0.77-0.01c-0.18-0.05-0.56-0.24-0.81-0.38l-2.24-1.14-1.52 2.01c-0.7 0.94-0.89 1.94-0.88 2.82-3.01-0.04-5.94-0.97-9.22-2.01-2.37-0.74-4.81-1.52-7.45-1.99-0.2-0.39-0.36-1.12-0.51-1.78-0.22-1.01-0.48-2.16-1.04-3.29l-0.65-1.29-1.42-0.3q-0.97-0.2-1.8-0.3 0.02-1.38-0.02-2.71l-0.06-2.59-10.71-1.29-1.7-1.7-0.98-0.14c-3.44-0.51-6.54-0.78-9.82-1.07q-2.21-0.2-4.54-0.43l-3.09-0.31-0.16 2.46c-0.23 0.1-0.52 0.22-0.72 0.3q-0.55 0.2-1.11 0.46 0-0.19-0.01-0.39l-0.05-2.33-2.26-0.52c-4.18-0.98-7.16-2.27-9.8-4.3q0.14-0.42 0.24-0.84c0.2-0.69 0.39-1.34 0.62-1.97l0.82-2.21-3.52-2.38c0.07-2.63-0.83-4.93-1.58-6.85l-0.25-0.65-0.51-0.47c-5.95-5.49-11.68-7.32-17.51-5.58l-2.19 0.65 0.03 1.39-0.75 0.77 0.61 1.74c0.2 0.57 0.4 1.06 0.6 1.54 0.16 0.38 0.32 0.76 0.47 1.22l0.33 0.93 0.82 0.56c1.33 0.9 2.31 1.79 3.05 2.79-0.85 1.57-1.59 3.09-2.08 4.97l-0.81-0.15q-2.2-0.41-4.42-0.87c-4.06-0.83-8.26-1.69-12.5-2.02l-1.71-0.14-0.98 1.4c-1.73 2.45-2.97 4.72-3.42 7.79l-0.13 0.82 0.54 1.3c0.39 0.93 0.89 2.14 1.03 3.09q-0.14 0.17-0.24 0.32c-1.07 0.22-2.17 0.63-3.15 1.16q-0.53-0.18-1.04-0.36c-0.75-0.25-1.45-0.5-2.22-0.81l-0.83-0.34-0.89 0.17q-0.81 0.16-1.55 0.33 0.01-0.27 0-0.56l-0.01-0.83-0.44-0.7c-1.93-3.11-5.45-3.92-8.27-4.58-1.33-0.31-2.59-0.6-3.49-1.05l-1.12-0.56-1.18 0.4q-0.41 0.12-1.05 0.22c-0.58 0.09-1.24 0.2-1.98 0.45l-1.33 0.45-0.51 1.31c-1 2.59-3.54 5.65-4.96 6.01-0.34-4.46-2.17-6.59-4.54-8.82 0.37-0.59 0.8-1.16 1.2-1.7l0.81-1.08-0.02-1.02c-0.02-0.63-0.15-1.24-0.26-1.78-0.05-0.21-0.12-0.54-0.12-0.63l-0.03-1.2-0.68-0.7c-0.15-0.28-0.4-0.73-0.86-1.2l-0.27-0.27c2.11 0.59 4.35 0.84 6.67 0.15l1.28-0.38 0.57-1.21c1.41-2.96 1.88-6.15 2.16-8.88l0.07-0.67-0.23-0.63c-2.63-7.52-3.54-13.87-2.77-19.36q0.24-0.33 0.46-0.74c0.38-0.26 1.01-0.44 1.91-0.68 0.85-0.22 1.81-0.48 2.77-0.94l1.85-0.89-0.16-2.06c-0.04-0.43-0.03-0.97-0.02-1.53 0.02-1.5 0.04-3.19-0.64-4.86l-0.33-0.81-0.72-0.51c-2.73-1.93-5.29-3.16-7.54-4.25-5.54-2.67-8.33-4-8.4-13.37l-0.01-0.98-0.59-0.79q-0.7-0.96-1.46-2.11-0.63-0.94-1.28-1.88c-0.16-1.28 0.7-3.47 1.23-4.83l0.31-0.8-0.16-0.84c-0.41-2.2-0.27-4.42-0.12-6.77 0.15-2.52 0.32-5.12-0.16-7.97l-0.11-0.61-0.34-0.53c-0.43-0.65-0.8-1.34-1.2-2.06-0.88-1.59-1.85-3.37-3.48-4.88l-1.14-4.31-0.92-0.63q-0.4-0.28-0.92-0.84c-0.33-0.33-0.69-0.7-1.12-1.05q-0.62-1.24-1.26-2.41c-1.59-2.96-2.96-5.51-3.06-8.5l-0.07-2.02-1.91-0.69c-2.52-0.92-4.82-0.25-6.67 0.3-0.82 0.24-1.59 0.47-2.21 0.5l-0.37 0.03-0.35 0.11c-1.86 0.57-2.93 1.87-3.72 2.82-0.23 0.28-0.65 0.78-0.84 0.91-0.94 0.15-1.86-0.27-3.34-1.01-1.77-0.89-3.97-1.98-6.74-1.53l-0.99 0.16-2.96 3.08-0.16 0.89c-0.9 4.96-2.56 5.79-5.58 7.29-2.16 1.08-4.79 2.39-7.36 5.29q-0.23 0.01-0.47 0.02c-0.62 0.02-1.3 0.04-1.82-0.02-0.75-0.85-1.52-1.63-2.27-2.39-0.92-0.93-1.78-1.81-2.55-2.75l-0.9-1.09h-1.43c-4.95 0-5.39-1.08-6.84-4.65-0.66-1.62-1.48-3.64-2.89-5.76l-0.45-0.69-0.75-0.36q-1.77-0.86-3.63-1.83c-6.69-3.46-14.23-7.36-22.17-5.05-6.41-3.61-10.52-2.13-14.86-0.56-0.95 0.34-1.92 0.69-2.96 1.01l-0.01-0.02c-0.28-0.74-0.56-1.51-0.97-2.33 0.09-0.38 0.4-1.35 1.54-3.44l1.38-2.54-2.48-1.47q-0.83-0.5-1.76-1.1c-3.99-2.56-10.67-6.86-15.9-2.02l-0.52 0.48-0.25 0.67c-0.99 2.64-0.78 4.81-0.59 6.73q0.06 0.56 0.11 1.14c-2.63-1.7-5.54-2.89-8.92-2.22l-1.48 0.29-0.6 1.26-0.16 0.17c-0.34 0.34-0.84 0.86-1.21 1.65l-0.63 1.32 0.65 1.31c0.14 0.29-0.22 1.2-0.55 2-0.28 0.69-0.59 1.44-0.8 2.27q-0.44 0.48-0.66 0.81l-0.22 0.13c-0.83 0.52-2.21 1.38-2.83 3.09l-0.12 0.4q-0.19 0.97-0.35 1.95-0.09 0.55-0.18 1.06l-0.03-0.02-1.8 0.64c-2.71 0.95-5.19 0.89-8.08 0.81-1.43-0.03-2.92-0.07-4.49 0.02l-1.11 0.07-0.52 0.49c-0.81-0.63-1.82-1.2-3.07-1.26l-0.96-0.05-0.8 0.51c-0.97 0.61-2.21 0.61-4.16 0.57q-0.83-0.03-1.65-0.02l-2.98 0.05 0.03 4.54 0.49 0.74c0.31 0.47 0.54 0.87 0.77 1.26q0.1 0.18 0.22 0.37-0.03 0.16-0.06 0.31c-0.07 0.38-0.13 0.68-0.24 1.02l-0.43 1.36 0.78 1.19c0.86 1.33 1.83 2.82 3.13 4.28 0.22 0.76 0.57 1.42 0.97 2-2.26 2.69-3.64 5.79-4.11 9.23l-0.15 0.85 0.04 0.08c-3.18 0.17-5.99 0.61-8.61 1.37-3.63-2.08-7.96-4.27-12.15-3.08q-3.58 1.03-5.64 4.9l-0.2 0.37-0.08 0.4q-0.19 0.84-0.33 1.66c-0.25 1.28-0.47 2.43-0.88 3.45-0.92 0.37-1.8 0.8-2.66 1.22-1.97 0.96-3.68 1.8-5.3 1.64l-1.35-0.13-0.99 0.92q-0.41 0.38-0.95 0.65-0.65-0.24-1.24-0.44c-0.67-0.23-1.31-0.45-1.79-0.69l-0.85-0.44-0.95 0.14c-1.86 0.27-3.76 0.3-5.77 0.3q-0.53-0.29-1-0.53c-0.45-0.23-0.84-0.43-1.19-0.67l-0.77-0.52-5.28-0.01 0.01 2.14-0.39 0.39-0.19 0.8c-0.2 0.84-0.3 1.56-0.39 2.2q-0.04 0.3-0.08 0.57c-1.34 0.46-2.87 0.7-4.48 0.94-3.24 0.5-6.86 1.05-9.67 3.69-4.25-0.7-8.31-0.08-12.26 0.51q-1.75 0.27-3.5 0.49l-0.65 0.07-0.57 0.35c-1.74 1.07-2.77 2.61-3.69 3.96l-0.16 0.25c-10.98-0.94-21.5 3.15-31.68 7.11-3.34 1.3-6.49 2.52-9.64 3.57l-2.78 0.92 0.73 2.38-0.11 0.02c-1.42 0.19-2.72 0.72-3.87 1.19-0.77 0.31-1.51 0.61-2.15 0.76-0.71-0.81-1.92-2.39-2.74-3.49 0-1.31 0.35-2.54 0.81-4.14q0.27-0.94 0.54-1.96l0.29-1.17-0.59-1.05c-2.96-5.23-8.8-2.17-11.3-0.86q-0.71 0.37-1.29 0.64l-0.66 0.3-0.46 0.57c-1.38 1.73-1.93 3.7-2.41 5.44-0.49 1.79-0.81 2.68-1.33 3.18l-0.15-0.03c-3.19-2.7-6.92-4.12-10.28-3.88q-0.45-0.18-0.96-0.38c-2.11-0.85-5.32-2.14-8.43-0.1l-0.65 0.43-0.36 0.68c-0.1 0.19-0.22 0.33-0.39 0.55-0.58 0.73-1.56 1.94-1.31 4.27l0.08 0.71 0.11 0.17c-5.26-0.51-7.33 0.26-14.22 5.38l-1.19 0.89-0.01 0.62-1.06 1.08 0.49 1.69c0.59 2.01 0.41 3.88-0.61 6.23l-0.73 1.85 1.33 1.43c0.09 0.09 0.27 0.41 0.39 0.62q0.23 0.41 0.54 0.88c0.17 1.22 0.49 2.37 0.79 3.5 0.24 0.87 0.47 1.72 0.6 2.52q-1.67 0.12-3.42 0.13c-2.62-3.65-5.42-6.51-8.53-8.71l-0.78-0.56-2.67 0.01-0.64 0.32c-1.88 0.95-3.53 2.09-5.12 3.2-1.53 1.07-2.93 2.04-4.39 2.75l0.01-0.45q0-0.8-0.33-1.49l0.03-2.91-3.64 0.75c-0.95 0.19-1.95 0.47-2.91 0.74q-0.49 0.13-0.94 0.27l-1.02-1.04-1.97 1-0.04 0.02h-0.29l-1.25 0.01-0.83 0.84q-0.13 0.09-0.28 0.19c-0.33 0.23-0.75 0.51-1.12 0.89l-0.86 0.86v0.54q-0.16 0.03-0.3 0.07c-0.64 0.14-1.46 0.32-2.27 0.71l-1.87-1.93-1.62 1.64h-0.67l-2.41 2.44-0.02 1.56q-0.92-0.11-1.82-0.18c-0.87-0.08-1.69-0.16-2.37-0.29l-1.59-0.32-0.82 0.82-0.23 0.09c-1.49-0.01-2.94 0.3-4.26 0.95-1.5-0.21-3.41-0.2-5.2 1.25-0.38 0.01-0.67 0.03-0.97 0.08l-1.49-1.53-1.58 0.85-0.16-0.07-1.7-0.76 0.88-4.69-5.43 5.5-1.42-1.45-2.07 3.01q-0.39 0.55-0.69 1.12l-3.18-3.28-0.04 3.8-1.01-1.04-2.15 2.06c-0.49 0.47-0.72 0.56-1.51 0.33l-1.7-0.48-1.25 1.26q-0.26 0.26-0.44 0.51-0.49 0.12-0.99 0.23c-0.79 0.18-1.58 0.37-2.28 0.55l-0.73 0.19-0.56 0.51c-0.76 0.7-2.25 1.34-4 1.7l-0.84 0.17-0.63 0.59c-0.66 0.64-1.98 1.13-3.26 1.61q-0.76 0.28-1.53 0.59c-0.38-0.15-0.78-0.24-1.29-0.24l-1.84 0.01-0.24 0.47-1.74-0.88-1.13 2.52q-0.16 0.02-0.3 0.05c-0.57 0.07-1.28 0.16-2.08 0.4l-0.71 0.22-0.09 0.09c-2.64-0.52-5.14-0.42-7.43-0.25v-0.49l-5.44 0.02-0.63 0.32c-0.34 0.17-0.58 0.37-0.75 0.53q-0.19 0.04-0.39 0.08c-0.22 0.05-0.44 0.1-0.58 0.12h-1.25l-1.91 1.93-0.21 0.44c-1.1 2.24-0.33 4.28 0.25 5.6q-0.17 1.13-0.71 1.61c-1.25 1.09-4.7 0.81-7.22 0.61q-0.73-0.06-1.44-0.11c-2.47-1.19-4.91-0.89-6.91-0.64-1.28 0.16-2.39 0.3-3.29 0.06l-1.19-0.31-1.06 0.6c-0.94 0.54-1.92 1.59-1.78 3.63l-0.09 0.12-1.95 0.01-0.29 1.7q-0.19 0.07-0.33 0.13c-0.45 0.17-0.95 0.36-1.44 0.65l-0.62 0.36-0.39 0.6c-0.32 0.5-0.55 1.04-0.76 1.51l-0.08 0.2-0.27-0.01-0.92 0.92c-0.82 0.83-1.66 1.4-2.63 2.05l-1.3 0.88-0.02 1.55c-0.24 0.14-0.63 0.29-1.27 0.51l-2.13 0.77-0.33 1.66c-0.12 0.64-0.52 1.21-1.16 2.1-0.62 0.88-1.33 1.86-1.81 3.17q-0.58-0.31-1.17-0.55c-0.53-1.13-1.05-2.36-1.38-3.58q0.42-0.22 0.84-0.44 0.44-0.25 0.92-0.5l0.87-0.44 0.45-0.88c0.11-0.22 0.22-0.38 0.34-0.55 0.19-0.29 0.44-0.66 0.7-1.16l0.83-1.64-1.07-1.48c-0.85-1.17-1.82-2.07-2.67-2.86q-0.5-0.46-0.93-0.9l-0.89-0.91-3.53 0.02-1.22 1.22c-0.96 0.17-1.88 0.4-2.77 0.61-2.09 0.51-3.92 0.95-5.82 0.72-1.38-0.54-2.81-0.48-3.99 0.11q-0.29-0.04-0.58-0.07c-1.55-0.19-2.53-0.34-2.88-0.85l-0.76-1.09-1.32-0.17c-2.26-0.29-4.13 0.26-5.76 1.73l-1.91 0.01-0.83 1.62c-0.13 0.27-0.22 0.36-0.49 0.63l-1.01 1.01 0.15 1.42c0.19 1.85 0.93 3.35 1.58 4.68q0.33 0.67 0.56 1.19-0.75 0.1-1.45 0.13l-1.04-1.08-0.83-0.21q-0.21-0.05-0.41-0.1c0.31-0.5 0.62-1.05 0.88-1.68l0.75-1.82-1.37-1.41c-0.68-0.69-1.58-1.15-2.46-1.6l0.06-3.27-4.06 1.4c-1.23 0.42-2.08 0.86-2.77 1.21l-1.49 0.75-1.52-3.22-2.98 2.55c-0.86 0.73-1.53 0.89-2.98 1.24q-0.45 0.11-0.93 0.23l-1.09 0.28-0.64 0.92q-0.34 0.49-0.61 0.98-1.85-1.37-4.29-1.74-0.15-0.75-0.35-1.53c-0.25-1.07-0.51-2.17-0.66-3.22l-0.14-0.97-0.62-0.64q-0.09-0.12-0.17-0.26c-0.22-0.35-0.49-0.78-0.87-1.17l-0.6-0.61-0.83-0.21c-0.87-0.22-1.75-0.31-2.6-0.4-0.67-0.07-1.31-0.14-1.78-0.26l-1.98-0.49-1.19 1.66-0.06 0.09c-0.16 0.06-0.66 0.08-0.99 0.1-1.14 0.05-2.69 0.12-4.27 1.15l-1.33 0.86-0.03 1.28-0.02 0.06q-0.06 0.16-0.12 0.34-0.28 0.33-0.6 0.7c-1.2 1.34-2.84 3.18-3.13 5.85l-0.09 0.83 0.36 0.77c0.35 0.74 0.7 1.38 1.05 2.03q0.15 0.26 0.28 0.52-0.18 0.46-0.36 0.91-0.3 0.81-0.64 1.53l-1.94-4.13-2.56 0.91c-2.14 0.76-4.25 1.05-6.64 0.92l-1.67-0.09-0.96 1.37c-0.29 0.43-0.7 0.87-1.12 1.34-1.41 1.56-3.77 4.17-2.44 7.92l0.71 2.02 3.7-0.03q0.15 0.12 0.29 0.23 0.41 0.29 0.67 0.55l1.41 1.46 1.88-0.76c0.68-0.28 1.17-0.4 1.6-0.39 0.78 1.61 2.04 2.82 3.1 3.85 0.59 0.56 1.56 1.49 1.64 1.84 0 0-0.02 0.17-0.25 0.53-3.24 1.85-4.38 3.92-5.31 5.6-0.88 1.59-1.41 2.55-4.13 3.6l-1.88 0.72-0.05 2.01v0.18h-0.14c-1.21 0.01-2.29 0.12-3.25 0.22-0.78 0.08-1.52 0.16-2.18 0.16l-1.84 0.02-0.82 1.64c-1.3 2.6-1.53 5.94-0.57 8.31l0.64 1.57 1.66 0.27c1.26 0.2 2.58 0.32 3.86 0.45 4.97 0.48 8.35 0.98 9.87 3.52l0.85 1.4 1.63 0.05q1.29 0.04 2.56 0.07c3.35 0.07 6.51 0.14 9.8 0.82l1.07 0.22 0.96-0.52q0.42-0.22 0.87-0.42c1.05-0.49 2.48-1.16 3.57-2.45q0.22-0.01 0.45-0.04c2.09-0.19 3.37-0.27 4.44 0.35q0.32 0.89 0.63 1.82 0.33 0.96 0.66 1.9-0.09 0.35-0.15 0.63l-0.01 0.07q-0.18 0.1-0.33 0.19c-1.05 0.59-2.13 1.2-3.34 2.7-1.06 0.72-2.34 1.07-3.43 0.97-0.22-0.92-0.68-2.03-1.77-2.85l-0.81-0.62-3.14 0.02-1.66-1.71-1.28 0.01c-0.58 0-1.12 0.11-1.64 0.21-0.39 0.07-0.8 0.15-1.08 0.15l-2.92 0.02-0.05 2.4-0.46 0.45-0.19 0.87c-0.23 1.06-0.35 2.17-0.46 3.24q-0.1 0.91-0.22 1.83-0.45 0.45-0.94 0.91c-1.42 1.36-3.04 2.9-4.13 4.99l-0.44 0.87 0.14 0.97c0.13 0.83 0.16 1.81 0.2 2.85 0.08 2.54 0.18 5.41 1.63 8.08l0.26 0.49 0.43 0.36c3.71 3.17 7.6 3.22 10.73 3.26 3.55 0.05 5.33 0.07 7.07 3.58l0.5 1.01 1.05 0.43c3.46 1.42 6.7 1.2 9.84 0.98q0.97-0.08 1.96-0.13l1.16-0.05 0.66-0.65c0.28-0.15 0.73-0.4 1.2-0.86l0.85-0.86 0.01-0.14c0.6 0.77 1.15 1.67 1.73 2.64 1.05 1.75 2.24 3.72 4.09 5.32l0.45 0.39 0.56 0.19c1.67 0.55 3.29 1.25 4.85 1.92 1.14 0.48 2.31 0.99 3.48 1.43l0.75 0.28 0.78-0.12c3.07-0.49 5.91-0.26 9.5 0.79 0.96 2.65 1.35 5.38 1.2 8.42-2.01 1.64-3.95 3.2-6.03 4.46l-0.92-0.31c-0.51-0.65-1.06-1.34-1.61-2.02-0.75-0.94-1.5-1.88-2.16-2.74l-0.91-1.16-3.4 0.02-0.75 0.5q-0.53 0.35-1.23 0.68-0.33 0.16-0.7 0.36c-1.55-0.27-3.92-0.45-6.02 0.39-0.35-0.09-0.76-0.16-1.32-0.16l-1.48 0.01-0.89 1.17q-0.7 0.91-1.6 1.9l-0.22 0.26q-0.47-0.48-0.95-1.02c-1.69-1.84-3.75-4.06-6.71-4.56l-0.73-0.79-1.27 0.01c-0.31-0.03-1.24-0.34-1.8-0.52l-1.77-0.6-1.32 1.34c-0.57 0.59-1.09 1.2-1.61 1.79-1.81 2.1-2.64 2.82-3.49 2.82h-0.01c-0.41-0.47-0.83-0.89-1.21-1.28-0.52-0.54-1.02-1.04-1.38-1.55l-0.57-0.78-0.91-0.3c-0.6-0.2-1.11-0.31-1.49-0.39-0.18-0.04-0.42-0.09-0.48-0.12l-1.78-0.89-1.52 1.29c-0.74 0.63-1.7 1.19-2.71 1.78-1.54 0.9-3.33 1.95-4.74 3.56q-0.51-0.19-0.99-0.34l-1.18-0.4-1.05 0.53c-0.28 0.07-1.02 0.07-1.46 0.07l-3.75 0.02 0.84 3.65c0.12 0.54 0.18 1.02 0.25 1.58 0.08 0.64 0.17 1.36 0.36 2.2l0.19 0.82 1.94 1.99c-2.3 3.1-5.15 5.09-8.64 7.54l-2.24 1.59-0.31 0.95c-0.53 1.67-1.04 2.68-1.91 3.74-1.19 0.62-2.77 0.83-4.42 1.06-0.92 0.12-1.87 0.25-2.82 0.46l-2.32 0.5-0.03 1.5-0.7 0.69-0.23 12.72 1.68 0.85q0.36 0.17 0.68 0.29l-0.02 1.19 6.16 1.21q-0.02 1.06-0.09 2.2c-0.13 2.43-0.27 5.18 0.29 7.78l0.33 1.52 1.44 0.61c2.18 0.92 4.35 1.28 6.64 1.44-0.05 0.66-0.1 1.39-0.04 2.17l0.06 0.71 0.37 0.61c2.02 3.34 3.58 7.1 4.95 10.6q-1.13 1.04-2.21 2.08c-4.15 3.95-8.08 7.69-13.02 7.9l-1.93 0.09-0.72 1.79c-0.59 1.48-1.89 4.03-4.17 5.35-0.97 0-2.24 0.08-3.39 0.6l-7.03-0.98-0.83 0.42c-4.74 2.4-8.15 6.24-11.45 9.96-2.88 3.25-5.61 6.32-8.97 8.14-1.19 0.17-2.45 0.19-3.77 0.23-2.3 0.05-4.67 0.11-7.13 0.87l-1.57 0.49-0.68 2.47c-0.69 2.49-1.56 5.58-0.52 8.74l0.11 0.35 0.61 0.97c1.38 2.23 2.95 4.75 6.09 6.2 1.31 0.77 2.66 0.72 3.5 0.69q0.26-0.02 0.53-0.01l2.34 0.09 0.55-1.88c4.64 3.14 9.47 6.21 15.2 7.79-0.89 0.93-2.16 2.01-2.98 2.72-1.62 1.37-3.14 2.68-4.07 4.06l-0.99 1.5 0.85 1.58c5.77 10.74 16.83 10.64 26.6 10.55 2.65-0.02 5.2-0.04 7.56 0.13v0.01l-0.18 0.67 0.13 0.68c0.36 1.96 1.08 3.49 1.71 4.84 0.55 1.18 1.02 2.19 1.27 3.43l0.42 2.42 2.04-0.01q0.1 0.62 0.33 1.34l0.67 2.09 6.95-0.02c0.35 0.36 0.82 0.74 1.41 1.04l1.93 0.97 1.35-1.35h1.22q0.6 0.43 1.18 0.88c3.63 2.71 7.74 5.79 13.37 5.24l0.84-0.08 0.67-0.5c0.7-0.53 1.49-1.14 2.28-1.76q0.46-0.35 0.91-0.7 0.25 0.15 0.56 0.39c1.37 5.63 4.43 10.36 9.49 14.67l-0.64 0.26-0.36 1.5c-1.79 7.45-3.24 15.05-4.65 22.4-1.42 7.47-2.89 15.17-4.71 22.64l-1.34 0.66c-9.99 4.92-21.31 10.49-31.54 11.59l-0.49 0.05-0.44 0.2c-5.02 2.29-9.64 2.83-13.72 1.62l-0.46-0.14-0.71 0.02c-7.53 0.24-16.03 0.52-22.75-2.11-0.95-1.35-2.06-2.59-3.13-3.79-2.96-3.33-4.73-5.55-4.31-8.43l0.15-1.02-0.51-0.9c-2.14-3.74-6.08-4.28-8.95-4.67q-0.69-0.1-1.36-0.2l-0.89-0.15-0.84 0.37c-5.59 2.5-8.17 9.52-10.9 16.95-1.8 4.91-3.66 9.97-6.26 13.01-2.44 1.4-5.29 2.13-8.3 2.91-2.46 0.63-4.98 1.28-7.41 2.33l0.02-1.31q0.26-0.18 0.51-0.43l2.13-2.11-1.23-1.24v-0.35l-0.5-0.77q-1.07-1.59-2.09-2.99c-0.68-0.95-1.32-1.84-1.97-2.82l-1.16-1.76-2.05 0.49c-4.23 1.02-6.42 1.46-9.92 0.15l-1.57-0.59-1.16 0.9-0.31-0.65-1.23-0.39c-2.12-0.66-4.27-0.9-6.35-1.13-2.63-0.3-5.11-0.58-7.18-1.69l-0.64-0.34-0.73-0.01c-1.29-0.02-2.48 0.16-3.63 0.32-1.22 0.18-2.3 0.35-3.31 0.24q-0.3-0.24-0.57-0.44l-0.19-0.15q-0.26-0.73-0.53-1.34c-0.22-0.53-0.4-0.98-0.51-1.43l-0.33-1.36-1.25-0.62c-0.72-0.36-1.53-0.72-2.35-1.08q-0.46-0.21-0.91-0.41c-0.17-0.89-0.05-1.59 0.34-2.59l0.56-1.38-0.77-1.28c-2.79-4.61-7.91-2.46-10.37-1.43-0.48 0.2-0.98 0.41-1.4 0.57q-0.38-0.09-0.73-0.13c-2.09-2.89-2.02-8.1-0.91-12.54 0.85-0.89 1.39-1.99 1.56-3.23 0.56-3.96-2.85-8.19-4.49-10.23l-0.58-0.72-0.89-0.27c-2.23-0.67-4.93-0.98-6.8-1.12l-0.55-0.04-0.53 0.16q-0.37 0.1-0.78 0.24c-0.6 0.19-1.46 0.47-2.12 0.56-0.41-0.85-0.69-1.94-0.98-3.07-0.27-1.02-0.54-2.07-0.93-3.1l-0.52-1.32-1.34-0.44c-0.82-0.27-1.36-0.54-1.99-0.85l-1.92-0.96-1.35 1.34h-0.68l-0.36 0.34-1.25 0.01-0.89 1.14c-0.22 0.27-0.48 0.41-1.44 0.76l-1.95 0.7-0.03 2.08q0 0.81 0.11 1.5l-1.11 0.01-0.82 1.66-0.09 0.2-0.16-0.03q0.13-0.51 0.15-1.16l0.02-1.26-0.71-0.72c-0.14-0.29-0.39-0.74-0.85-1.2l-1.68-1.7-2.03 1.26c-0.47 0.29-0.83 0.6-1.13 0.86l-0.98-0.23-2.06 2.03-1.89 0.01-0.02-0.04q-0.15-0.36-0.29-0.65l-0.83-1.7-1.88 0.01c-0.83 0-1.44 0.2-1.8 0.33l-1.6 0.03c-0.3-0.6-0.7-1.26-1.28-1.84l-1.38-1.39-1.83 0.7c-0.22 0.09-0.51 0.11-1.01 0.13-1.04 0.05-2.6 0.13-4.18 1.32l-0.88 0.66-0.25 1.06c-0.84 3.59-0.93 7.18-1.02 10.64-0.07 2.78-0.14 5.45-0.58 7.99l-0.7-1.07-6.03 0.03-0.78 0.56c-0.38 0.28-1.16 0.6-1.85 0.88-1.91 0.77-4.29 1.73-4.97 4.22q-0.06 0.21-0.1 0.4c-2.62-0.94-5.3-3.09-7.16-5.35l0.07-3.97-0.89-0.89c-0.1-0.11-0.32-0.52-0.47-0.82-0.23-0.43-0.48-0.92-0.82-1.45l-0.61-0.91-1.04-0.32c-1.24-0.37-2.15-0.81-2.91-1.42l-1.07-4.57-1.11-0.55-0.13-0.18q-0.3-0.41-0.58-0.69l-1.55-1.56-1.95 1.01q-0.7 0.35-1.44 0.75c-2.6 1.38-5.76 3.06-8.26 3.16-0.95-0.84-2.04-1.45-2.72-1.8l-1.77-0.88-1.51 1.28q-0.28 0.23-0.56 0.48c-0.31 0.28-0.76 0.68-1.11 0.92-3.22-2.91-5.13-3.11-8.4-2.84-0.85 0.06-1.82 0.14-3.04 0.13l-1.25-0.02-2.06 2.03-0.07 1.14c-0.13 2.06 0.54 3.92 1.13 5.57q0.21 0.58 0.36 1.04-1.04-0.37-2.21-0.5c-1.37-1.91-3.09-3.83-5.5-5.21-0.55-1.47-1.42-2.8-2.68-4.09l-0.89-0.91-2.84 0.01-0.87 0.85c-0.46 0.46-0.87 0.96-1.27 1.45-0.29 0.36-0.6 0.73-0.83 0.96l-0.67 0.66-0.18 0.93c-0.39 2.08-0.01 3.95 0.33 5.6q0.16 0.76 0.26 1.44c-1.11-0.2-2.46-0.26-3.86 0.37l-1.31 0.6-0.35 1.39c-0.23 0.91-0.32 1.75-0.4 2.5-0.12 1.1-0.2 1.57-0.38 1.84-2.13 0.1-4.15-0.59-6.77-2.29l-0.75-0.49-0.9 0.01c-0.65 0-1.19 0.18-1.62 0.33l-0.06 0.02-1.33 0.01-0.88 1.38c-2.53 3.98-4.33 9.46-4.81 14.67l-0.01 0.2c-0.02 0.73 0.07 1.39 0.15 1.98 0.05 0.4 0.13 1.01 0.12 1.13l-0.02 0.04c-0.16 0.07-0.35 0.14-0.49 0.19-0.45 0.17-0.96 0.36-1.45 0.64l-0.11 0.07c-2.65 1.66-4.99 3.88-7.05 5.84l-0.46 0.44c-2.07 1.13-4.35 2.13-6.75 3.19-3.17 1.38-6.45 2.82-9.33 4.65l-0.75 0.47-0.37 0.79q-0.2 0.44-0.4 0.9c-0.17 0.38-0.41 0.94-0.65 1.4q-0.43-0.32-0.87-0.66c-2.68-2.04-5.45-4.14-8.44-5.6q-0.15-0.31-0.29-0.61c-0.21-0.42-0.41-0.82-0.5-1.13l-0.67-2.1-2.21 0.01c-0.71 0.01-1.57-0.07-2.47-0.14-1-0.09-2.03-0.18-3.02-0.17l-1.22 0.01-1.17 1.15c-2.71-2.69-5.62-5.16-8.45-7.56-2.87-2.45-5.62-4.78-8.1-7.26q0.27-0.35 0.56-0.71 0.47-0.58 0.94-1.21l0.16-0.25c1-1.7 0.73-3.42 0.56-4.46q-0.06-0.33-0.08-0.64l-0.08-1.36-1.08-0.84c-0.29-0.23-0.58-0.53-0.89-0.84-0.8-0.82-1.79-1.83-3.4-2.35l-1.17-0.38-1.09 0.55q-0.38 0.18-0.85 0.45c-0.51 0.29-1.09 0.61-1.54 0.77l-2 0.67-0.05 2.11q0 0.43 0.05 0.8c-1-0.08-2.16 0.04-3.18 0.73l-2.73 0.02-0.03 1.36-0.97 0.01-6.13-6.17-0.07 3.72-1.25-0.61-1.27 0.7c-0.2-0.04-0.58-0.18-0.84-0.27q-0.32-0.12-0.65-0.23l-2.98-0.97-0.83 3.02c-0.74 2.64-1.86 5.28-3.32 7.86l-0.39 0.67-0.01 0.78c-0.05 4.4 1.25 8.18 2.51 11.84 0.69 2.02 1.35 3.93 1.77 5.89q-0.17 0.23-0.35 0.47-0.31 0.18-0.62 0.37c-0.37 0.22-0.73 0.44-1.02 0.58l-0.88 0.44-0.45 0.86c-0.72 1.39-1.65 2.83-2.62 4.27l-0.16-0.1-0.07-0.09-1.85-1.85-2.08 1.57q-0.24 0.18-0.44 0.29-0.51-0.78-1.03-1.56c-0.94-1.42-1.9-2.88-2.77-4.38 0.34-2.04 1.25-3.89 2.46-6.19l0.55-1.05-0.32-1.15c-1.09-3.93 1.16-8.2 3.25-11.09l1.06-1.42-0.79-1.61c-0.02-0.1-0.02-0.46-0.01-0.7l0.03-1.4-1.06-0.92c-3.15-2.76-6.88-3.05-10.17-3.31-1.61-0.13-3.15-0.25-4.43-0.66-0.62-0.75-1.08-1.75-1.61-2.88-0.72-1.54-1.57-3.36-3.08-4.86q0.03-0.23 0.04-0.48l0.04-1.91-1.21-0.59 0.19-1.16c0.39-2.46-0.81-4.1-1.61-5.19q-0.23-0.32-0.47-0.66l-0.37-0.58 0.03-0.08-0.26-0.91c-0.65-2.25-1.55-3.7-3.23-5.16l-0.55-0.48-0.72-0.18c-0.51-0.12-1.09-0.33-1.71-0.56q-0.18-0.07-0.36-0.14l0.01-0.61-2.83-2.87-0.83-0.2c-0.65-0.16-1.21-0.31-1.78-0.47q-0.37-0.1-0.75-0.21c-1.17-1.44-2.9-2.19-4.25-2.77-0.46-0.2-0.93-0.41-1.18-0.56l-1.99-1.2-1.65 1.61q-0.22 0.05-0.43 0.08l-0.13 0.03-2.56-2.58-1.94 0.97q-0.18 0.09-0.32 0.13l-1.86-0.61c-0.21-0.06-0.51-0.22-0.83-0.38-0.54-0.26-1.29-0.64-2.18-0.85-0.24-2.17-1.92-3.86-3.12-4.91l0.41-1.12c0.5-1.34 0.6-2.67 0.34-3.9l1.34-1.3 0.03-1.22c0.02-0.77-0.14-1.39-0.3-1.81l0.04-1.47-3.15-1.56c-0.44-0.56-0.55-0.75-0.55-0.96l0.04-3.27-3.26 0.25c-1.01 0.08-1.82 0.04-2.51-0.11l0.03-1.39-2.12-0.69c-0.26-0.08-0.58-0.24-0.93-0.41l0.02-0.63-3.12-3.16-1.12 0.01-0.05-0.02-0.08-0.02q-0.13-0.25-0.3-0.6l-0.48-1-1.01-0.45c-2.68-1.2-5.12 0.11-6.68 1.02l-0.29-0.16c-0.62-0.35-1.23-0.53-1.81-0.6l1.33-2.52-4.24 0.05c-0.55-0.26-1.06-0.32-1.48-0.33l-1.78 0.02-0.75 1.4q-0.27-0.03-0.59-0.03l-1.2 0.01-0.87 0.84c-0.48 0.47-0.78 0.97-0.97 1.43l-0.1-0.1-1.56 0.29c-1.5 0.27-2.68 0.95-3.73 1.55q-0.57 0.33-1.07 0.58l-2.55-1.26 0.02-0.85-1.71 0.01-0.34-0.17 0.06-2.06-4.44 2.21h-0.22q-0.27-0.14-0.54-0.27l0.02-0.68-1.37 0.01 0.13-4.94-1.03 1 0.06-2.02-5.31 5.15q-0.4 0.39-0.62 0.75l-2.61-1.29-0.13 4.35-0.11 0.03-0.31-0.9-4.91 0.05-0.61 1.64-0.77 0.39 0.02-0.81-2.14-0.7c-0.21-0.07-0.45-0.24-0.84-0.52q-0.04-0.3-0.07-0.62c-0.07-0.72-0.15-1.53-0.33-2.39l-0.26-1.18-1.01-0.67c-0.5-0.33-0.88-0.66-1.27-1.03-0.92-3.52-2.88-6.45-4.98-9.09q-0.2-2.17-0.46-4.25c-0.2-1.71-0.39-3.33-0.5-4.96l-0.07-1.04-0.7-0.77c-2.29-2.54-5.64-2.94-8.15-0.99l-1.11 0.86-0.08 2.31q-0.16 0.12-0.3 0.24-0.14 0.11-0.28 0.22c-1.76-0.32-3.61-0.6-5.85-0.01l-2.16 0.57-0.08 2.24c-0.04 1.49-0.86 3.08-1.89 3.83-1.29-0.17-2.71-0.35-4.54 0.23-1.14-0.55-2.32-1.25-3.56-1.99l-0.73-0.43-0.84 0.01q-1.35-0.01-2.83-0.13-1.6-0.14-3.32-0.15l-1.38 0.02-0.88 1.05q-0.99 1.15-1.91 2.19c-3.71 4.19-7.53 8.51-4.85 15.35q-0.51 0.17-0.94 0.34l-0.3 0.13-0.28 0.19q-0.53 0.38-1.1 0.8l-0.24 0.17-1.06-1.34c-0.27-0.34-0.47-0.64-0.66-0.93-1.11-1.74-2.31-2.53-4.05-2.5q-0.06-0.14-0.09-0.26l-1.44-4.7-3.37 3.27-2.37 0.02-0.14 4.43c-0.79 1.04-2.11 1.68-4.06 2.57q-0.56 0.26-1.12 0.53c-1.81-0.59-3.59-0.49-5.08-0.41q-1.18 0.08-1.99 0.04-0.05-0.94-0.37-1.89 0.31-0.01 0.64-0.03c0.85-0.03 1.73-0.07 2.7-0.17l2.61-0.27 0.05-1.74 0.67-0.64 0.08-1.16c0.16-2.51 0.14-5.13-0.07-8.5l-0.13-2.22-4.19-1 0.03-0.75-1.63-0.8-0.14-0.15c-0.34-0.34-0.85-0.86-1.64-1.25l-1.11-0.54-1.17 0.39c-1.87 0.63-3.76 0.96-5.77 1.31l-1.7 0.29-0.3-0.29-1.67 0.42c-0.72 0.19-1.35 0.37-1.99 0.56q-0.37 0.11-0.74 0.21-0.17-0.12-0.39-0.29-0.44-0.33-0.96-0.68l-2.01-1.33-1.48 1.43c-1.61-0.14-3.13-0.18-4.66-0.18-0.05-0.7 0.07-0.96 0.07-0.96l1.9-3.51-3.9-0.85c-0.7-0.15-1.48-0.56-2.32-0.98-1.63-0.85-3.68-1.89-6.31-1.7l-2.35 0.18-0.39 2.32q-0.1 0.6-0.2 1.18c-0.44 2.49-0.89 5.06-0.45 7.89l0.17 1.05 0.94 0.86q0.72 0.67 1.48 1.29l-0.46-0.12c-1.07-0.29-2.07-0.34-2.96-0.4-1.07-0.06-1.75-0.11-2.15-0.4l-0.8-0.6-7.11 0.08-0.55 2.28q-0.11 0.45-0.25 0.89l-1.3 1.25-1.37 0.01-0.8 1.7c-1.21 2.57-1.62 5.1-2.02 7.55q-0.11 0.67-0.22 1.34l-0.15 0.82 0.3 0.78q0.28 0.69 0.59 1.35l-1.61 0.01-0.62 2.15q-0.28 0.98-0.39 1.83-0.61 0.05-1.21 0.09c-1.3 0.11-2.65 0.21-4 0.41l-5.84 0.88 3.77 3.81c-0.51 0.46-1.02 0.99-1.47 1.63l-0.77 1.09 0.29 1.29c0.24 1.1 0.63 1.98 0.94 2.68l0.02 0.04c-4.48 2.17-9.28 3.75-14.31 5.41-3.89 1.29-7.92 2.62-11.81 4.25l-0.36 0.15-0.32 0.25c-2.63 2.05-4.7 4.33-6.52 6.33-4.5 4.94-6.97 7.66-14.02 5.23l-1-0.35-0.99 0.36q-0.78 0.28-1.6 0.63c-0.87 0.36-1.77 0.73-2.52 0.87-1.71-0.97-3.85-1.77-5.93-2.18l-3.46-0.77-0.1 3.13c-0.88 0.22-1.89 0.66-2.77 1.63l-0.75 0.81-0.03 1.11c-0.04 1.07 0.04 1.99 0.12 2.8q0.04 0.41 0.06 0.77-0.8 1.21-1.51 2.38c-0.63 1-1.22 1.95-1.89 2.9l-1.43 2.03 0.85 0.88-0.04 1.29 1.69 0.87c1.8 0.93 2.62 3.49 3.47 6.21q0.34 1.08 0.72 2.18-0.47 0.14-0.92 0.29c-2.01 0.63-3.89 1.24-5.7 1.18l-1.57-0.05-0.93 1.25c-1.17 1.56-2.69 1.98-5.28 2.6-2.06 0.48-4.38 1.03-6.58 2.58l-0.27 0.19-0.22 0.24c-4.34 4.79-7.76 8.89-10.42 12.53-2.68 1.33-4.72 2.82-6.56 4.8q-0.22-0.2-0.44-0.43l-0.89-0.89-1.25 0.01c-0.72 0.02-1.47-0.06-2.28-0.13q-0.83-0.08-1.7-0.13-0.4-0.39-0.84-0.84c-1.83-1.88-4.91-5.03-9.21-3.28l-0.74 0.3-0.48 0.62q-0.18 0.23-0.37 0.43c-0.77 0.88-2.22 2.52-1.68 5.09l0.09 0.33c0.87 2.61 3.27 3.72 4.85 4.46q0.3 0.13 0.58 0.28 0.08 0.18 0.15 0.38l0.09 0.25-1.06 2.91 0.24 0.91c1.1 4.14 1.65 8.42 2.23 12.96 1.02 7.88 2.07 16.02 6.2 23.31q-0.19 0.69-0.37 1.35l-0.25 0.89q-0.13 0.21-0.23 0.38l-0.64 0.62-0.1 1.12c-0.08 0.99-0.12 2.86 0.6 4.29l0.48 0.97 0.99 0.44c1.3 0.56 2.77 0.81 4.18 1.05q0.15 0.02 0.29 0.05c0.23 1.09 0.5 2.24 0.83 3.34-5.21 6.84-13.27 10.3-21.77 13.94-2.12 0.91-4.31 1.85-6.44 2.84l-0.69 0.32-1.17-1.15 0.01-0.44-2.2 0.01q-0.1-0.15-0.19-0.33l-0.83-1.68-1.36 0.01c-0.36-0.16-0.9-0.32-1.55-0.33l-1.13-0.06-0.49 0.47c-0.27-3.04-2.11-5.88-4.38-7.7q-0.13-0.28-0.24-0.49-0.1-0.17-0.17-0.32l0.15-1.38-1.73-1.72c-0.57-2.78-1.14-5.85-1.67-8.78l-0.07-0.36-0.15-0.33c-0.94-2.09-2.64-2.8-3.94-3.21-0.74-1.32-1.75-2.32-2.71-3.12v-0.01c-0.06-0.38-0.13-0.77-0.12-1.04l0.04-1.93-1.62-0.79-0.15-0.15-0.12-0.12c-0.68-3.59-3.23-6.05-5.32-8.08-1.75-1.69-3.25-3.15-3.5-4.81l-0.36-2.57-2.6 0.02c-0.11-0.01-0.44-0.07-0.65-0.11q-0.14-0.03-0.28-0.05-0.2-0.27-0.4-0.59l2.46-2.35-4.4-1.7c-1.31-0.51-2.9-1.27-4.29-2.04-0.46-0.74-0.95-1.37-1.37-1.9q-0.37-0.46-0.67-0.9l-0.53-0.8-0.89-0.34c-0.67-0.26-1.33-0.62-2.02-1-0.8-0.43-1.7-0.91-2.73-1.31l-0.76-0.3-0.82 0.14c-4.53 0.75-8.58 4.1-10.32 8.38-0.52 0.31-0.88 0.66-1.1 0.87l-0.89 0.85-0.08 2.87q-0.58 0.05-1.19 0.06-1 0.03-2.05 0.14l-1.29 0.14-0.79 1.04c-1.79 2.4-1.78 5-1.77 7.08q0.02 0.8-0.03 1.58l-0.08 1.36 0.63 0.62-4.53 4.35 1.76 2.14c5.08 6.21 4.76 6.78 0.78 13.71q-0.54 0.93-1.17 2.05c-4.71 8.57-14.49 11.81-21.87 13.02l-1.58 0.26-0.67 1.46c-2.77 6.07-2.88 12.35-2.98 18.43l-0.02 1.04c-0.4 3.57-1.11 7.31-3.41 10.51l-0.51 0.7-0.05 0.87c-0.29 4.79-0.98 9.69-1.64 14.43-0.36 2.56-0.73 5.22-1.04 7.83l-0.23 1.94 2.42 1.43c5.97 3.53 13.35 7.89 15.78 13.67-1.77 10.52-11.32 16.45-16.94 19.08l-1.04 0.48-0.45 1.07c-7.61 17.97-13.86 34-19.11 49.02l-0.98 2.78 2.76 1.02c2.7 1.01 5.42 2.26 8.29 3.59 6.07 2.81 12.34 5.71 19.07 6.47l0.22 0.3c1.81 2.46 3.96 4.9 6.05 7.25l0.64 0.73 0.96 0.21 0.13 0.03q0.37 0.62 0.68 1.03 0.16 0.22 0.28 0.41l0.54 1.05 1.49 0.53c3.06 1.1 3.41 1.22 3.27 2.74q-0.36 0.62-0.62 1.15c-0.23 0.45-0.42 0.84-0.66 1.18l-0.53 0.77 0.04 4.6 1.82 0.76q1.11 0.46 2.2 0.85-0.15 0.2-0.32 0.43l-10.42 5.06 1.69 2.81c0.99 1.65 2.17 3.35 3.3 4.98 1.95 2.81 3.95 5.69 5.07 8.38l-0.02 0.01-3.18 1.02 1.36 3.05c2.63 5.93 8.43 9.1 13.55 11.91 1.75 0.96 3.41 1.86 4.9 2.84l3.47 2.28 1.07-4.01c0.72-2.69 1.51-5.96 1.86-9.45 12.95 5.84 22.3 5.13 34.79 4.17q2.19-0.17 4.55-0.33c6.13 4.74 9.72 11.29 13.51 18.21 2.22 4.05 4.51 8.24 7.4 12.16l0.52 0.71 0.84 0.32c4.45 1.67 8.84 1.97 13.53 1.97 1.47 11.78 5.23 23.43 12 37.36l0.2 0.36c1.81 2.68 3.91 5.21 5.94 7.65 3.7 4.46 7.21 8.68 8.91 13.64-2.67 4.33-6.37 5.86-12.38 5.14l-2.4-2.31q-0.06-0.33-0.12-0.59c-0.08-0.35-0.13-0.56-0.13-0.75l-0.03-1.23-0.89-0.86c-0.5-0.49-0.98-0.84-1.36-1.12-0.3-0.21-0.54-0.38-0.74-0.58l-0.86-0.83-1.2-0.01c-0.72 0-1.48-0.08-2.29-0.17-0.92-0.09-1.87-0.19-2.88-0.2l-1.12-0.01-0.85 0.73c-2.38 2.04-7.97 6.82-7.31 13.62l0.15 1.48 1.26 0.78c0.96 0.6 2.07 1.03 3.12 1.33l-0.05 1.05 2.91 2.81 1.19 0.01c0.67 0 1.95 0.32 3.09 0.61l1.12 0.28q0.14 0.26 0.26 0.52 0.29 0.57 0.57 1.09l0.78 1.57 1.78 0.02q0.2 0.02 0.39 0.09 0.26 0.07 0.6 0.13l0.23 0.16c0.12 0.07 0.23 0.14 0.26 0.15l0.86 0.83 1.37 0.01q0.54 0.31 0.97 0.55c1.17 2.52 2.9 4.66 3.66 5.53l1.51 1.74 1.94-0.94c1.77 1.73 3.83 3.06 6.36 4.11l0.54 0.23h0.31l0.04 0.01q0.39 0.13 0.96 0.24 0.36 0.22 0.7 0.41c1.07 0.6 1.22 0.74 1.4 1.19l0.97 2.46 2.26-0.57c0.96 0.17 3.49 1.21 4.89 1.79q1.34 0.57 2.47 0.98l0.03 1.09 1.35-0.66c1.79 0.46 3.12 0.27 4.07-1.28q0.19-0.3 0.3-0.6 0.45 0.15 0.99 0.15l2.48 0.02-0.42 3.03 1.45 0.01c0.14 0.62 0.34 1.18 0.51 1.67q0.06 0.18 0.12 0.34c-0.12 0.5-0.11 0.93-0.1 1.17l0.04 1.22 0.88 0.85c0.5 0.48 0.98 0.84 1.37 1.12 0.29 0.22 0.53 0.39 0.74 0.58l0.87 0.84 3.77 0.03 0.65-1.35 0.39 0.01 2.47-2.47-0.03-0.88h0.51c1.57 1.46 3.31 2.47 4.98 3.46q1 0.57 1.96 1.18l1.11 0.72 1.28-0.33c0.97-0.26 1.75-0.87 2.2-1.73 0.69-1.34 0.28-2.62 0.03-3.3l0.11-0.74c0.4-0.37 0.68-0.74 0.87-0.99l0.02-0.03c0.14 0.39 0.26 0.9 0.41 1.6 0.2 0.86 0.41 1.85 0.82 2.86l-4.11 4.12 5.91 0.05q0.07 0.15 0.13 0.29c0.61 1.46 1.76 4.18 4.76 4.46l1.41 0.13 2.04-2.05 0.13-0.98c0.25-1.7 0.79-3.45 1.63-5.17l0.5-1.03-1.69-5.95-0.47-0.46 0.78-1.77c0.73-1.66 0.4-3.13-0.35-4.37l1.69-1.35-1.95-1.89 1.01-2.07q0.1-0.2 0.21-0.36c1.75-0.71 2.8-2.27 3.27-2.96l0.53-0.79-0.02-0.96c-0.03-0.95-0.17-1.75-0.28-2.39l-0.04-0.18q0.16-0.26 0.32-0.51c0.67-1.09 1.08-1.7 1.54-2.02 1.11 0.4 2.22 0.67 3.18 0.9l3.95 0.99 0.42-3.36c0.47-3.74 3.16-6.66 6.18-9.64l0.03 1.19 3.93 3.8 2.08-1.83c1.84-1.62 2.42-3.85 2.89-5.63 0.22-0.86 0.43-1.69 0.74-2.3q0.78-0.42 1.37-0.91l0.24 0.21 0.81 0.65 3.14 0.01 0.86-1.5q0.98-1.7 1.93-3.42 0.05 0.2 0.1 0.39l0.51 1.86 1.89 0.31q0.15 0.03 0.29 0.04l1.09 1.04c0.14 0.28 0.4 0.72 0.86 1.17l0.87 0.85h0.7c0.36 0.16 0.9 0.34 1.57 0.35 1.24 0 1.79-0.55 2.79-1.55l0.61-0.61 0.19-0.83c0.17-0.74 0.44-1.53 0.73-2.36 0.45-1.33 0.95-2.79 1.16-4.4l1.73 1.68 3.43 0.02 0.72-0.44c2.2-1.34 3.19-3.53 3.98-5.29 0.18-0.4 0.41-0.91 0.64-1.34h0.21c0.52-0.02 1.03-0.11 1.48-0.33l1.17 0.01 0.79-1.8c0.33-0.74 0.92-1.52 2.8-1.84q0.43 0.18 0.95 0.45c1.03 0.53 2.37 1.21 4.04 1.26 1.47 0.7 3.1 0.67 4.27 0.65q0.46-0.02 0.86 0l1.31 0.05 0.42-0.41q0.21 0.03 0.44 0.03l1.88 0.01 0.83-1.68q0.29-0.59 0.55-1.36l0.49 0.01 0.83-0.66c0.91-0.72 1.72-1.43 2.5-2.12q0.73-0.64 1.45-1.26l1.54 0.01 0.48-0.48q0.19 0.07 0.39 0.13c0.98 0.35 2.4 0.86 4.02 0.5l0.54 0.52 1.61-0.38c1.56-0.38 3.5 0.33 5.54 1.09 1.17 0.43 2.37 0.87 3.63 1.17q0.54 0.62 1.1 1.33 0.48 0.59 0.98 1.19c-0.29 0.51-0.65 1.18-0.9 2.02l3.37 1.51c-0.97 0.64-1.86 1.4-2.78 2.59l-0.63 0.83 0.02 1.05q0.01 0.8 0.36 1.48l0.04 2.13 2.93 0.01c0.56-0.01 1.03-0.1 1.49-0.33h0.1l0.76-0.5c1-0.66 1.73-1.48 2.26-2.1l0.24-0.07 0.05-0.02h0.61c0.41 1.26 1.04 2.56 2.23 3.59l0.03 1.42 1.63 0.81q0.4 0.19 0.74 0.32-0.05 0.28-0.12 0.49l-0.31 0.97 2.14 6h1.92l0.72 0.7 0.59-0.69 2.3 0.02-0.07-2.78c1.51-2.47 1.91-6.03 0.29-8.85q2.23 0.34 4.57 1.09l0.09 5.53 3.41-3.4 0.33 0.32h1.21c0.71-0.04 1.44-0.09 2.13-0.19q0.24-0.03 0.48-0.06c2.74 1.79 5.56 2.59 8.3 3.36 2.56 0.73 4.98 1.41 7.09 2.9l0.8 0.56 0.98-0.02q0.35-0.01 0.77 0.01c1.5 0.04 3.76 0.1 5.65-1.18l1.35-0.91-0.01-0.69 0.52-0.52 0.12-1.05q0.13-1.18 0.35-2.4l2.05 0.01 0.61-0.28c1.55-0.73 3.23-2.02 4.44-3.36q1.99-0.39 3.92-0.79 0.72-0.14 1.44-0.29l0.02 1.7c-0.26 0.56-0.32 1.09-0.32 1.51q0.02 0.79 0.37 1.47l0.02 0.92 1.5 0.85c0.52 0.29 1.06 0.47 1.54 0.61l-0.09 1.81h0.89l0.03 2.03 0.88 0.86c0.66 0.65 1.27 1.06 2.25 1.17l0.02 1.05 0.7 0.68 0.07 3.74 2.06 0.01 0.7 0.68 6.04 0.03-0.86-3.7c-0.1-0.42-0.11-0.73 0.15-1.12l-0.14 0.4 2.85 0.02-1.98 4.06 4.26 0.03c0.36 0.15 0.89 0.34 1.55 0.34l1.25 0.01 0.68-0.68c0.44 1.31 0.58 1.97 0.34 2.26l-2.73 3.37 2.36 0.79-0.24 0.24 0.45 1.67c0.57 2.13 0.51 4.34-0.18 6.94l-0.44 1.66 1.2 1.22c0.45 0.45 0.95 0.89 1.43 1.31q0.44 0.38 0.88 0.79l0.05 2.43c-2.2 1.83-4.14 4.41-4.3 7.41-0.67 0.98-1.52 2.32-1.65 4.02l-0.15 0.23-2.08 2.09 1.72 1.68c-0.48 0.77-0.96 1.33-1.49 1.47l-5.21 1.31 2.86 2.79q-1.13 0.53-2.03 1.43l-0.9 0.9 0.04 1.7-4.79 4.82 4.62 0.04-0.07 0.13-0.94 1.95 1.55 1.51c0.24 0.23 0.55 0.6 0.84 0.96 0.4 0.48 0.81 0.97 1.28 1.43l0.86 0.84 0.91 0.01h0.02l-1.9 1.91 0.04 1.28c0.02 0.78 0.21 1.38 0.38 1.8l0.04 1.37 1.54 0.77 0.2 0.18q0.21 0.22 0.52 0.49 0.13 0.3 0.27 0.58c-0.55 0.37-1.08 0.86-1.54 1.55l-0.54 0.8 0.02 0.96q0.01 0.15 0.02 0.29h-0.23l-3.11 3.14 0.57 1.07c-0.62 0.79-1.02 1.78-1.14 2.89l-1.06-0.01 0.15 5.77-8.2-0.07 7.45 5.5h-0.47l0.06 2.26c-1.04 0.58-1.84 1.36-2.53 2.11l-0.81 0.89 0.08 3.11 0.88 0.85 0.24 0.22q-0.05 0.35-0.04 0.78l0.05 1.48-0.64 0.44 0.67 0.65v0.22l-2.08-2.09-1.57 1.58h-0.34l-0.28 0.28c-0.63-0.31-1.27-0.57-1.96-0.81l-4.12-1.46 0.18 6c-0.82 0.68-1.64 1.5-2.24 2.56l-0.9 1.6 0.39 0.6c-1.1-0.16-2.14-0.42-3.16-0.85l-0.84-0.35-0.89 0.17c-4.15 0.79-7.93 1.73-11.11 2.57l-1 0.03c-4.48 0.16-8.71 0.32-13.11-0.48l-0.98-0.18-0.89 0.44c-1.18 0.59-5.19 2.34-7.07 0.25l-0.84-0.94-1.25-0.05c-2.14-0.1-3.18-0.27-4.06-1.03l-1.46-1.26-0.02-0.48-0.55-0.01-3.15-2.71 0.09 2.69-2.25-0.02-0.9 1.32c-2.51 3.66-4.54 5.77-8.1 6.43l-1.3 0.24-0.7 1.13c-0.26 0.42-2.12 0.41-3.23 0.41q-0.83-0.02-1.68 0.01l-0.09-0.12c-0.15-0.19-0.38-0.47-0.44-0.58l-1.42-2.65-2.65 1.42c-1.86 1.01-2.92 2.73-3.69 3.99l-1.36-0.01-0.85 1.66c-0.71 1.4-1.14 1.62-1.16 1.63l-0.59 0.26-0.43 0.47c-1.52 1.68-1.98 3.68-2.36 5.29-0.16 0.7-0.43 1.87-0.68 2.05l-0.67 0.49-0.32 0.77c-1.44 3.42-1.01 6.83-0.63 9.84q0.09 0.67 0.16 1.32c-0.62-0.18-1.35-0.28-2.17-0.17l-0.5 0.06-0.45 0.23c-2.84 1.42-4.7 3.38-6.48 5.28q-0.51 0.54-1.01 1.06c-5.81-1.38-9.45 4.18-11.7 7.63-0.62 0.95-1.2 1.84-1.72 2.49l-0.71 0.87 0.05 1.31q-0.4-0.23-0.8-0.45 0.02-0.37 0.06-0.7c0.13-1.27 0.3-3-0.64-4.73l-1.94-3.54-0.54 0.55-1.23-2.27-1.91 1.94-2.31-2.23-4.63 4.72 0.12 3.18 0.87 0.84c0.36 0.35 0.73 0.83 1.12 1.35 0.49 0.65 1.05 1.38 1.75 2.06l0.67 0.64-0.27 0.72 0.55 0.53 0.08 2.01c-0.99-0.54-1.91-0.64-2.69-0.53-0.4-0.62-0.83-1.17-1.28-1.74l-2.38-3.02-4.06 4.14 0.68 1.79c0.1 0.28 0.19 0.81 0.28 1.32q0.11 0.64 0.27 1.36-0.1 0.48-0.16 0.86c-0.06 0.36-0.1 0.65-0.2 0.97l-0.52 1.75 1.01 0.97c0.16 0.42 0.45 1.08 1.06 1.66l0.85 0.82 5.04 0.06-0.14-3.17q-0.01-0.24-0.04-0.45c0.31-0.2 0.67-0.4 0.97-0.57 0.61-0.34 1.23-0.7 1.83-1.17l3.46-2.71-0.09-0.05q0.46-0.08 0.8-0.16c0.12-0.03 0.24-0.06 0.29-0.08l2.63 0.04 0.05 1.28 1.14 0.85c2.19 1.66 4.46 2.21 7.09 1.72l0.24 0.04c1.25 0.2 3.04 0.49 4.61-0.29l0.02 0.65 1.72 0.75c2.19 0.97 4.06 2.73 5.75 4.49l0.46 0.49 0.63 0.23c3.13 1.21 6.45 6.25 6.45 9.82v1.28l1.48 1.42 0.14 3.69 0.48-0.1c-0.56 0.57-0.99 1.18-1.34 1.69-0.2 0.29-0.42 0.6-0.61 0.82l-5.18-0.06c-1.4-1.04-2.92-2.05-4.44-3.05q-0.05-0.15-0.1-0.27l3.96-4.47-6.56-0.08q-0.63 0.01-1.1 0.1l-0.01-0.03-0.78-1.79-1.1-0.01-1.97-2.79-1.15-0.24c-0.69-0.14-1.37-0.37-2.08-0.61q-0.93-0.33-2.06-0.64-0.2-0.13-0.38-0.25c-0.12-0.08-0.24-0.15-0.27-0.17l-2.14-2.06-1.51 1.54-0.68-0.01-0.91 0.92q-0.74 0.77-1.16 1.5c-1.61 0.25-3.38 0.02-5.36-0.24q-0.63-0.09-1.27-0.16-0.32-0.27-0.65-0.52c-0.38-0.29-0.76-0.59-1.01-0.82l-1.77-1.71-2.02 1.41c-0.65 0.45-1.64 0.4-3.2 0.28-1.02-0.08-2.14-0.17-3.33-0.05-1.49-0.8-2.99-1.22-4.58-1.3l-1.25-1.22-1.83 0.78c-0.23 0.06-1-0.06-1.46-0.14q-0.35-0.06-0.7-0.11l-2.66-0.39-0.68 2.6q-0.71 2.69-1.42 5.18l-3.69 2.01c1.2 3.03 1.38 6.47 1.57 10.12 0.14 2.62 0.29 5.33 0.84 7.98l0.11 0.53 0.29 0.46c5.41 8.6 14.35 9.76 22.24 10.79 5.43 0.7 10.56 1.37 14.71 4.09 3.39 2.51 4.71 7.16 5.86 11.36 0.04 0.51-0.01 1.14-0.06 1.8-0.16 2.14-0.41 5.38 2.53 7.78l0.55 0.44 0.69 0.16c3.96 0.89 5.06 5.17 6.28 11.62 0.4 2.06 0.77 4 1.34 5.78l0.21 0.68 0.5 0.51c2.05 2.07 3.52 4.88 5.08 7.85 1.39 2.64 2.82 5.36 4.75 7.67l2.14 2.57 1.25-1.3c0.82 1.64 2.09 2.8 3.16 3.77q0.37 0.34 0.73 0.68c4.47 9.12 3.68 15.01 2.69 22.42-0.54 4.01-1.09 8.16-0.86 13.18l0.05 1.2 0.87 0.83c0.73 0.7 1.55 0.94 2.09 1.1 0.14 0.04 0.32 0.09 0.38 0.12l0.8 0.41 0.9-0.11q1.57-0.19 3.24-0.46c2.91-0.44 5.91-0.9 8.64-0.67l3.43 0.29-0.09-1.69q0.39-0.08 0.78-0.16c1.67-0.35 3-0.63 4.37-0.57q0.1 0.26 0.21 0.5 0.21 0.49 0.39 0.94-0.06 0.36-0.07 0.66l-2.23 1.71 2.51 2.42c1.29 1.23 2.66 2.47 3.99 3.67 1.05 0.95 2.14 1.93 3.16 2.89 0.48 2.16 1.53 3.9 2.48 5.45 0.72 1.18 1.39 2.29 1.67 3.37l0.2 0.77 0.56 0.58c0.88 0.89 1.63 2.07 2.42 3.32 1 1.57 2.03 3.19 3.51 4.62l1.03 1 1.42-0.18c2.41-0.29 4.6-1.25 6.7-2.17 2.7-1.18 5.03-2.2 7.31-1.68l0.58 0.13 0.59-0.11c2.22-0.38 3.46 1.18 5.74 4.83q0.59 0.96 1.18 1.86l0.88 1.29 3.92 0.07 0.79-1.86c0.31-0.72 0.91-1.28 1.93-2 4.77-0.74 9.14 0.57 14.03 2.23l0.05 0.11q0.23 0.48 0.44 0.97-0.18 0.31-0.37 0.72l-0.07 0.15-1.55-0.85c-0.87 1.03-2.9 3.46-1.1 6.47l0.09 0.14-0.11 0.24 0.21-0.07 0.08 0.14 0.4 0.33c10.45 8.59 7.17 17.22 3.01 28.15q-0.77 2-1.5 4.04c-0.95 2.03-2.25 3.85-3.62 5.76-2.9 4.06-6.19 8.65-5.52 15.5l0.1 1.1 1.49 1.43q-0.03 0.28-0.04 0.55-0.05 0.83-0.16 1.52l-0.31 1.63 1.21 1.13c4.36 4.04 3.67 8.66 2.02 15.79-0.29 1.27-0.6 2.58-0.83 3.87l-1.52 8.18 6.39-5.33c7.54-6.29 14.85-13.2 21.92-19.89 3.23-3.05 6.56-6.21 9.85-9.23 22.57-13.21 49.01-19.83 76.55-19.16 3.47 2.21 7.09 4.42 10.6 6.56 14.3 8.7 29.07 17.7 39.16 30.59-0.7 5.74 0.26 9.94 6.02 14.61 2.54 3.59 4.5 7.56 6.57 11.75 2.42 4.89 4.92 9.95 8.47 14.5l0.2 0.23c1.64 1.72 3.27 3.6 4.85 5.42 4.38 5.03 8.9 10.24 14.94 13.81l0.18 0.1c1.59 0.8 3.37 0.73 4.79-0.06 0.53 0.6 1.23 1.13 2.17 1.39l2.61 0.74 1-2.51c0.8-1.99 2.21-2.36 6.06-2.89q0.27-0.05 0.54-0.08c0.59 0.29 1.14 0.63 1.77 1.09l2.13 1.55 4.39-4.63q1.43 0.07 2.9 0.19c1.46 0.11 2.96 0.22 4.56 0.25l3.22 0.05-0.18-3.22c-5.75-106.04-10.18-217.37-13.14-330.95q22.34-7.16 44.71-14.34l2.56-0.82-0.17-0.83c11.61-3.58 23.33-7.29 34.7-10.89 26.84-8.51 54.55-17.28 82.19-24.77l0.35 2.19 3.35-1.11c1.13-0.37 2.22-0.82 3.27-1.26q0.73-0.3 1.43-0.58c2.37 1.75 4.75 3.45 7.06 5.1 2.72 1.95 5.53 3.96 8.28 6.01l4.9 3.65-0.01-0.75c3.69 2.68 7.38 5.37 10.99 8.01 5.26 3.85 10.69 7.81 16.04 11.65l-0.04 0.27 1.46 1.04c10.32 7.34 20.71 14.82 30.76 22.04q13.5 9.73 27.02 19.38c6.71 5.03 13.49 9.88 20.14 14.6l-0.01 0.02 2.73 2c5.07 3.71 10.3 7.49 15.36 11.14 5 3.6 10.15 7.33 15.17 11 1.74 7.75 5.64 13.88 12.51 19.7 7.6 8.7 15 17.92 22.16 26.84 8.77 10.94 17.84 22.25 27.42 32.74l1.1 1.21 1.62-0.28c13.71-2.33 27.57-5.05 40.98-7.69 16.07-3.16 32.68-6.43 49.14-9.04 22.7 3.57 45.64 4.95 67.83 6.29l7.37 0.45 0.43-0.1c4.27-1 9.71-3.98 15.46-7.14 8.38-4.59 18.71-10.26 23.68-8.3 9.83 21.31 13.79 24.78 27.96 37.24q2.36 2.08 5.18 4.57c1.97 8.54 4.71 17.11 7.36 25.42 1.41 4.41 2.87 8.98 4.18 13.43l0.97 3.3 3.14-1.41c3.09-1.4 6.12-2.89 9.06-4.34q2.34-1.16 4.76-2.32c0.34 15.96 0.65 31.22 0.72 46.92l-3.87-1.58-0.17 4.27c-0.17 4.31-0.47 8.64-0.75 12.83-0.58 8.34-1.18 16.97-0.8 25.98l0.11 2.53 2.52 0.32c10.28 1.28 20.86 2.56 31.68 3.87q0.95 10.56 1.88 21.04c1.02 11.32 2.03 22.62 3.04 34.04l0.21 2.45 2.45 0.27c6.16 0.66 12.48 1.01 18.59 1.35 9.97 0.55 20.28 1.12 29.84 3.07l0.77 0.16 0.76-0.24c3.6-1.18 20.99-1.35 23.97 0.44l0.77 1.06 1.2-0.01c2.25 2.59 4.72 5.1 7.34 7.48l1.54 1.39 1.53-0.79 0.6 1.24 1.33-0.68 1.2 3.11-1.52 1.56-0.04 6.11c-0.86 0.05-1.73 0.05-2.72 0.05h-2.34l-0.56 2.28c-0.31 1.25-0.63 2.2-0.96 3.23l-0.57 1.72 1.26 1.3c0.46 0.48 1.08 1.44 1.63 2.29l0.64 0.99 1.13 0.29c5.52 1.42 10.73 5.17 14.67 10.55l0.65 0.87 1.05 0.26c3.86 0.96 6.75 3.59 9.6 6.42l1.33 1.32 1.76-0.61q0.36-0.12 0.73-0.19l-1.25 2.52 3.23 1.11c2.07 0.7 4.48 1.41 6.8 2.09l2.42 0.7 0.97-1.96c2.5 0.11 4.72-0.86 6.6-1.7 0.77-0.34 1.5-0.66 2.18-0.89l3.69-1.19-2.09-3.27c-0.44-0.7-0.69-1.48-0.97-2.39l-0.46-1.44-1.44-0.49c-0.48-0.17-1.12-0.47-1.72-0.8-1.23-4.05-3.51-7.31-5.68-10.21q0.14-0.76 0.27-1.54c0.64-3.57 1.36-7.54 0.19-11.41l1.56-1.6 0.04 0.2c0.11 0.56 0.24 1.25 0.57 1.96l1.95 4.06 3-3.36c0.56-0.64 1.43-1.06 2.44-1.55 1.31-0.63 2.95-1.43 4.3-2.94l0.59-0.66 0.14-0.86c1.1-6.82 6.69-12.87 9.78-15.76l3.49-0.01 0.03-2.97c0-0.21 0.04-0.43 0.12-0.8q0.03-0.18 0.07-0.36c0.66-0.55 1.19-1.09 1.68-1.59l0.89-0.91-0.03-1.28c-0.04-1.57 0.45-3.26 1.39-4.82q0.32 0.14 0.68 0.23l1.08 0.26 0.99-0.49c2.28-1.15 3-3.3 3.47-4.71q0.1-0.29 0.19-0.55c2.34-1.26 3.54-3.02 4.45-4.35 1.17-1.72 1.45-2.13 5.4-0.64l0.91 0.34 0.93-0.26q0.6-0.16 1.18-0.34c1.75-0.52 2.78-0.8 3.75-0.45l0.5 0.19h0.53q0.8-0.01 1.49-0.35l2.13-0.01 0.04-2.65 0.03-0.07c0.14-0.43 0.32-0.97 0.33-1.62l0.02-1.85-1.49-0.77q0.43-0.45 0.93-0.87 0.69-0.19 1.34-0.39 0.81-0.24 1.75-0.49l1.39-0.36 0.59-1.31c1.73-3.85 5.14-8.13 9.51-8.62l1.06-0.12 0.75-0.76c0.22-0.22 0.59-0.52 0.94-0.81q0.25-0.21 0.51-0.42c1.91-0.1 4.05-0.36 6.05-1.44q0.27 0.19 0.76 0.61l1.67 1.42 1.78-0.91q0.81-0.39 1.75-0.74c0.7-0.27 1.5-0.57 2.32-0.99l0.88-0.45 0.44-0.88q0.71-1.44 1.28-2.83l4.32-0.03 0.68-2.02c0.14-0.4 0.38-0.95 0.61-1.49q0.21-0.47 0.4-0.93 1.05-0.64 2.22-1.27c1.15-0.63 2.33-1.28 3.47-2.05l0.76-0.51 0.34-0.85c1.09-2.7 2.15-5.11 3.8-6.91 1.75-0.39 3.15-1.44 4.33-2.32 0.51-0.38 1.03-0.78 1.39-0.95l2.02-1.01-0.41-2.22c-0.13-0.71-0.19-1.48-0.26-2.29q-0.03-0.47-0.08-0.95c1.26-1.04 2.24-2.13 3.32-3.35l0.52-0.58 0.19-0.5q0.16-0.39 0.25-0.77c1.4 1.18 2.98 2.25 4.64 3.14l0.07 0.13-0.08 5.22 2.46-0.01 1.99 2.05 1.28-0.01c0.83 0 1.44-0.21 1.8-0.34l2.08-0.02 0.66-2.08c0.37-1.17 0.87-2.3 1.41-3.49 0.77-1.72 1.57-3.49 2.02-5.53 1.48-1.42 2.79-3.06 4.07-4.66q0.79-1.01 1.56-1.93c0.68 0.24 1.34 0.32 1.85 0.3 4.14-0.01 7.67-4.49 9.56-6.89l3.85-4.89-6.22 0.03q-0.52 0.01-1.03 0.07l-0.5-0.52q-0.06-0.19-0.17-0.45 0.04-0.39 0.24-0.76l2.12 1.63 1.06-4.54c0.15-0.64 0.45-0.98 1.16-1.74 0.63-0.67 1.42-1.51 2.05-2.74l0.07-0.15c0.64-1.42 0.94-2.86 1.21-4.12q0.21-1.09 0.44-1.88 0.22 0.18 0.47 0.35l0.36 0.24 0.41 0.14c0.82 0.26 2.72 0.87 4.74-0.25l0.97-0.54 0.39-1.03q0.2-0.55 0.4-0.98c0.5-1.18 1.08-2.51 0.85-4.54l-0.12-1.04-0.74-0.75c-0.87-0.87-1.93-1.49-2.86-2.04q-0.24-0.14-0.54-0.32l8.3-1.09 0.45-2.07q0.11-0.52 0.23-1c0.25-1.11 0.51-2.24 0.61-3.51 0.73-0.37 1.46-0.8 2.1-1.22l0.75-0.51 0.34-0.84c0.66-1.59 1.62-3.5 2.6-5.1l0.4-0.66v-0.1c1.83 0.22 4.48 0.31 6.44-1.7 1.08-0.12 2.12-0.34 3.07-0.55 3.64-0.8 3.92-0.54 4.55 0.67l0.63 1.2 1.31 0.33c0.64 0.16 1.2 0.32 1.77 0.48 0.61 0.18 1.23 0.35 1.94 0.53l1.82 0.45 1.2-1.43c1.17-1.38 2.98-1.9 5.09-2.5q1.25-0.34 2.54-0.79l0.27-0.1 0.25-0.15c1.9-1.15 3.1-1.81 4.46-1.74 0.78 0.32 1.56 0.52 2.25 0.7 1.06 0.28 1.77 0.48 1.91 0.77l0.29 0.58 0.51 0.41c2.2 1.79 4.73 2.46 6.96 3.05 3.23 3.46 6.34 3.3 8.43 2.51l0.6-0.23 0.68-0.68q0.35 0.04 0.75 0.05h0.66l0.59-0.28c3.5-1.64 6.61-0.15 11.39 2.42 3.32 1.79 6.77 3.64 10.75 3.89l0.74 0.08 0.73-0.37c0.16-0.06 0.34-0.08 0.52-0.12q0.24-0.05 0.52-0.12 0.14 0.04 0.27 0.07c2.52 1.8 5.14 2.65 7.68 3.48q0.34 0.12 0.7 0.23 0.64 0.89 1.27 1.88c1.66 2.57 3.89 6.01 8.34 6.38q0.18 0.13 0.33 0.25 0.41 0.3 0.67 0.56l0.92 0.95 1.59-0.05c1.32-0.04 1.98-0.04 2.56 0.28l1.17 0.66 1.27-0.44c3.56-1.21 7.41-0.3 11.49 0.66 1.98 0.47 4 0.95 6.08 1.21l-0.08 3.18 0.87 0.9c0.45 0.47 0.94 0.87 1.41 1.26 0.35 0.28 0.7 0.57 0.91 0.78l0.83 0.86 1.18 0.05c3.09 0.15 6.23 0.69 8.62 1.49l0.92 0.31 0.92-0.28c2.68-0.83 4.16-3.11 3.86-5.94l-0.12-1.13-0.83-0.77c-7.8-7.18-4.71-19.28 0.31-27.45l0.58-0.94-0.17-1.08c-1.28-8.52 0.78-11.75 2.27-14.11 1.02-1.59 2.22-3.49 1.75-6.02 2.3-0.77 4.42-1.96 6.49-3.11 4.62-2.58 7.62-4.08 10.95-2.33l3.5 1.83 0.83-3.86c0.42-1.97 1.28-3.47 2.37-5.22l0.65 0.5c3.89 2.62 7.41 1 9.74-0.07 0.87-0.4 1.7-0.78 2.41-0.93l0.48-0.13c1.81-0.69 2.58-1.83 2.91-2.67 0.28-0.7 0.34-1.38 0.27-2.01 0.85-0.03 1.68-0.11 2.46-0.18q0.38-0.04 0.74-0.07l0.93 1.97 1.76-0.01 0.04 0.01q0.14 0.04 0.3 0.09l0.85 0.91 1.28-0.01q0.26 0.03 0.58 0.09 0.55 0.12 1.26 0.19 0.23 0.1 0.42 0.17l1.77 1.81 0.93-0.93h1.16c0.22 0.01 0.63 0.05 1.02 0.12l0.18 0.03q0.21 0.41 0.4 0.83l1.57 3.35 1.86-1.41 0.12 0.12 1.21-0.01 0.25-0.01c0.55 0.53 1.19 1.13 1.98 1.65q0.16 0.61 0.34 1.13 0.08 0.26 0.17 0.54l0.4 1.33 1.27 0.55c1.14 0.49 2.1 1.05 2.96 1.74 0.36 1.93 1.56 3.57 2.49 4.84q0.42 0.58 0.75 1.08l0.88 1.45 6.79-0.06 1.15 0.05 0.6-0.59q0.34 0.12 0.67 0.25c0.54 0.19 1.12 0.41 1.56 0.63l0.01 0.03 0.01 0.05-0.2 6.57 3.9-3.29q0.4 0.26 0.91 0.47l0.64 0.24 0.68-0.05c0.74-0.06 1.35 0.29 2.66 1.19 0.6 0.41 1.28 0.87 2.07 1.29l-0.02 0.46 1.37 0.93c0.86 0.59 1.7 0.97 2.49 1.27q0.39 0.67 0.79 1.2 0.24 0.34 0.49 0.72l0.89 1.41 2.74-0.02 0.59 0.67 1.29-0.01q0.18 0.02 0.36 0.08c0.43 0.1 1.04 0.25 1.75 0.24h1.02l0.8-0.64c2.03-1.59 3.56-1.1 7.39 0.7q1.03 0.5 2.08 0.95l0.61 0.26 0.66-0.02q1.19-0.03 2.39-0.08c5.54-0.21 10.78-0.4 15.58 1.69l1.5 0.66 1.37-0.91q0.92-0.64 1.59-1.19c0.42-0.33 0.77-0.62 1.19-0.89l1.28-0.86 0.03-1.03 0.51-0.5 0.18-0.9c0.2-1.01 0.4-1.93 0.59-2.85q0.24-1.09 0.47-2.22c0.36-0.49 0.63-0.98 0.89-1.44q0.25-0.47 0.57-0.96l0.19-0.28q0.28-0.14 0.58-0.29l0.09 0.02c0.17 0.03 0.41 0.09 0.46 0.1l1.35 0.68 1.91-0.96q0.14 0.15 0.32 0.33l0.9 0.93 1.29-0.02q0.42 0.02 1.02 0.12 0.15 0.02 0.3 0.05c0.48 0.67 1.31 1.51 2.76 1.79l0.83 0.16 0.79-0.3c3.7-1.38 7.56-1.24 11.65-1.08q0.72 0.03 1.45 0.05 0.31 0.23 0.61 0.42l1.21 4.05 1.31-0.01 0.24 0.25 1.18 0.07c2.53 0.15 4.89-0.58 6.97-1.21 1.52-0.46 2.96-0.89 4.28-0.96l1.47-0.08 0.84-1.21c0.28-0.42 0.58-0.77 0.92-1.18l0.05-0.07c1.91 0.21 3.81 0.24 5.66 0.27 2.14 0.03 4.16 0.06 6.11 0.36l0.6 0.09 0.58-0.15c2.19-0.54 3.12-2.3 3.62-3.61 0.36-0.06 0.68-0.12 0.91-0.12l1.21-0.01 2.81-2.76c3.1 0.04 6.04 0.52 9.14 1.03 2.99 0.48 6.07 0.99 9.41 1.1 5.19 6.12 13.07 4.19 19.23 2.38 1.78 0.57 3.49 0.38 4.93 0.18 4.51 1.52 9.79 2.15 15.74 1.86 0.43 0.52 0.84 0.95 1.23 1.36l0.9 0.93 1.02-0.01 0.33 0.33 2.62-0.03c0.58 0.37 1.15 0.63 1.59 0.82q0.21 0.1 0.39 0.19l1.35 0.67 1-0.5q0.44 0.47 0.83 0.88l1.9 1.97 2.14-1.71c0.48-0.39 0.83-0.55 1.01-0.61 0.09 0.11 0.24 0.33 0.38 0.69l1.48 3.63 3.12-2.38c0.44-0.33 0.81-0.69 1.15-1 0.23-0.22 0.54-0.52 0.79-0.7q0.54 0.09 0.98 0.15 0.75 0.09 1.18 0.22l2.39 0.79 1.19-2.22 0.14-0.2q1.08 0.26 2.23 0.6c2.64 0.76 5.63 1.62 8.83 0.95l1.37-0.29 0.53-1 0.38 0.19 1.19-0.41c1.17-0.4 2.21-0.88 3.21-1.34q0.89-0.42 1.75-0.78 0.23 0.09 0.44 0.16 0.09 0.15 0.16 0.29c0.2 0.35 0.4 0.69 0.52 0.97l0.56 1.22 1.28 0.4c1 0.31 1.97 0.5 2.9 0.68 2.44 0.48 3.41 0.76 3.98 1.83l1.37 2.61 2.63-1.33q0.26-0.14 0.59-0.26l0.21 0.21 2.18-0.03q0.14 0.11 0.26 0.21 0.4 0.29 0.64 0.53l0.96 1 1.38-0.08c0.59-0.04 1.28 0.24 2.17 0.58 0.8 0.31 1.73 0.68 2.81 0.88 0.64 0.58 1.34 0.92 1.84 1.17l1.91 0.96 1.15-1.13c1.36 0.41 2.66 0.37 3.84 0.23q0.28 0.36 0.64 0.91 0.35 0.54 0.74 1.08l0.92 1.23 1.53-0.03q0.79 0 1.48-0.36l1.26-0.02 0.51-1.36c0.37 2.77 1.71 5.2 2.87 7.3l1.19 2.18 1.16-0.03c0.08 0.1 0.11 0.15 0.14 0.24l0.76 1.66 1.82 0.1c2.68 0.14 5.1 2.99 6.1 5.73l0.21 0.58 0.42 0.45c0.9 0.95 1.9 1.75 2.87 2.53 1.61 1.29 3.01 2.4 3.6 3.9l0.78 1.96 2.11-0.07c2.36-0.09 4.06-0.08 6.26 0.21l1.44 0.18 1.04-1.01c0.64-0.61 1.29-1.1 1.97-1.57 0.95 0.04 1.83 0.16 2.71 0.31q0.23 0.35 0.56 0.7l1.53 1.6 1.72-0.86c0.73 0.36 1.48 0.56 2.22 0.67l0.25 0.26-0.35 6.36 5.01-4.86 0.68-0.01 0.85-0.83q0.19-0.19 0.36-0.4 0.39 0.05 0.82 0.08 0.05 0.15 0.11 0.28c2.17 5.38 3 6.19 8.21 8.37l0.82 2.92 0.57 0.29-0.01 0.03c-0.4 1.68-0.89 3.77-0.32 5.85l0.62 2.25 1.35-0.02 1.5 1.56 2.17-2.1 0.23-0.22q0.3 0.01 0.49 0l1.19-0.02 0.85-0.82 0.15-0.14 0.25 0.26 3.85-0.07 0.86-0.82c0.37-0.36 0.72-0.55 1.36-0.87l1.15-0.58 0.37-1.23q0.33-1.15 0.48-1.96c0.11-0.51 0.19-0.92 0.31-1.24l0.69-1.78-1.32-1.37q-0.23-0.25-0.5-0.65 0.06-0.14 0.12-0.28 0.12-0.31 0.26-0.67l0.86-2.22-3.39-2.3c0.06-1.81-0.31-3.41-0.61-4.77-0.34-1.48-0.56-2.52-0.42-3.55 1.46-0.72 3.09-1.65 4.15-3.22l1.55-2.29-2.17-1.73-0.17-0.16c-0.47-0.43-1.42-1.31-2.94-1.5-1.3-1.33-2.17-3.6-2.13-5.74 0.03-1.36 0.42-3.22 2.16-4.34l1.09-0.71 0.23-1.29c0.26-1.5 0.83-3.02 1.44-4.63q0.15-0.43 0.32-0.86l-0.07 1.42 3.7-3.59 2.9-1.28 0.2-0.09 1.45 0.84 1.57-1.53q0.15-0.1 0.33-0.22c0.34-0.22 0.76-0.5 1.14-0.87l0.85-0.82 0.01-0.34q0.39-0.16 0.76-0.33c0.75-0.34 1.5-0.68 2.33-1.02l1.33-0.54 0.23 0.24 1.88-0.77c0.47-0.19 0.87-0.42 1.2-0.6 0.13-0.08 0.3-0.17 0.42-0.23l2.96 0.27 0.05-3.24c0.02-1.56-0.69-2.85-1.16-3.7-0.09-0.16-0.18-0.31-0.22-0.41l-0.67-1.83-1.94-0.13c-3.11-0.22-7.68-2.33-8.59-4.48-0.09-0.22-0.27-0.66 0.12-1.42 3.52-0.6 6.5-2.75 9.17-4.69 4.26-3.09 6.23-4.2 8.64-2.71l1.98 1.22 2.25-2.17 2.89-0.05 0.72-1.9q0.15-0.33 0.47-0.81c0.32-0.5 0.72-1.12 1.02-1.92l0.43-1.12-0.46-1.1c-0.51-1.23-0.74-2.56-0.59-3.38l0.19-1-0.46-0.9c-0.74-1.47-1.04-2.2-0.85-3.12l0.51-2.45-2.32-0.94c-1.15-0.46-2.24-0.55-3.25-0.51 0.91-1.94 1.95-3.74 3.32-5.03l0.94-0.88 0.01-1.3c0-1.27 0.09-2.1 0.59-3.14l0.58-1.2-0.51-1.24c-2.14-5.18-4.1-10.57-6-15.79-2.03-5.59-4.13-11.37-6.48-16.99l-0.44-1.04-0.91-0.45c-0.37-2.08-0.5-3.81-0.15-5.58l0.17-0.86-0.31-0.81c-0.4-1.03-0.86-2.05-1.3-3.03-0.54-1.21-1.1-2.45-1.57-3.73 0.08-1.16 0.21-3.03-0.75-4.62 0.16-2.65-0.58-5.1-1.24-7.3-0.58-1.93-1.12-3.75-1.06-5.52 0.31-8.46-1.23-17.1-2.93-25.3 1.23-2.08 1.74-4.26 2.2-6.23 0.43-1.82 0.81-3.4 1.64-4.66l0.93-1.41-0.71-1.53c-0.41-0.87-0.91-1.8-1.44-2.69 1.36-0.96 3.04-1.51 5.02-2.17l2.76-0.91 0.08-2.08c0.02-0.65-0.08-1.26-0.17-1.79-0.04-0.22-0.09-0.44-0.09-0.59l0.03-0.93-0.5-0.78c-1.55-2.44-3.84-3.58-5.69-4.49-2.09-1.04-2.92-1.54-3.24-2.75l-0.49-1.81-1.84-0.35c-0.58-0.12-1.13-0.07-1.62 0.02-1.85-2.02-3.8-2.22-5.14-2.02l-0.95 0.14-0.69 0.67c-0.1 0.1-0.43 0.29-0.67 0.44q-0.22 0.12-0.48 0.29-0.77-0.09-1.5-0.16c-0.8-0.07-1.56-0.13-2.26-0.27l-1.54-0.29-2.43 2.37q-0.99 0.1-1.83 0.23c-1.35 0.2-2.02 0.27-2.55 0.1q-0.3-0.94-0.61-1.85c-0.3-0.9-0.6-1.8-0.9-2.78l-0.6-1.97-2.05-0.15-0.2-0.05q0.65-0.36 1.35-0.72c1.1-0.59 2.24-1.19 3.44-2.05 0.96-0.72 1.68-1.62 2.31-2.42 0.16-0.19 0.37-0.46 0.6-0.72l0.58 0.59 1.93-0.93c0.5-0.24 1.65-0.94 1.98-2.4l0.65-0.26q0.22-0.09 0.34-0.12c0.19 0.15 0.47 0.4 0.62 0.54l0.62 0.56 0.83 0.16c4.47 0.85 6.89-1.08 8.34-2.24 0.16-0.13 0.37-0.3 0.54-0.43h0.01l0.76 1.62 5.33-0.06 0.6-0.28c2.86-1.37 5.06-3.77 5.96-6.46l0.23-0.16 0.76 0.77 2.28-0.11c4.04-0.19 7.86-0.37 12.39-2.81l0.8-0.43 0.37-0.69 0.23-0.17q0.39-0.3 0.68-0.57c1.03 0.41 2.05 0.65 2.89 0.84l0.12 0.03q0.56 0.39 1.03 0.67c0.21 0.12 0.49 0.29 0.57 0.37l1.45 1.58 1.95-0.97c0.23-0.07 0.89-0.08 1.17-0.08l0.97-0.01 0.78-0.57c0.79-0.59 1.55-1.23 2.29-1.86q0.54-0.48 1.07-0.91c1.83 0.05 3.45-0.34 4.92-0.69 0.92-0.22 1.79-0.43 2.61-0.5 0.8-0.05 1.85-0.38 2.7-1.63l0.77-0.74 0.03-0.96 1.99 0.64 0.79-0.76 0.34-0.01 0.87-0.83c0.35-0.34 0.64-0.75 0.91-1.17 0.9-0.26 1.63-0.61 1.83-0.71l0.3-0.14c2.2 0.09 4.37-0.61 6.18-2h0.1q0.18 0.03 0.36 0.08c0.44 0.11 1.03 0.24 1.75 0.24l1.2-0.01 1.39-1.35 0.14 0.31 2.46-0.43c2.47-0.42 5.22-0.89 7.29-3.34 2.04-0.64 3.38-2.07 4.4-3.16 0.47-0.5 0.89-0.95 1.32-1.29l1.18 0.58 1.29-0.58c0.36-0.16 0.79-0.35 1.23-0.61q0.58 0.58 1.21 1.33c0.52 0.63 1.1 1.3 1.79 1.95 0.09 1.38 0.35 2.55 0.58 3.63l0.19 0.85 0.26 0.26q0.04 0.17 0.13 0.36 0.04 0.79 0.12 1.43c0.06 0.52 0.11 0.97 0.09 1.43l-0.06 1.9 1.69 0.87c1.88 0.96 3.71 0.55 4.96 0.17q0.14 0.54 0.28 1.01l0.38 1.24 1.16 0.58c5.69 2.82 10.73-0.39 14.77-2.97 2.88-1.83 5.59-3.57 8.28-3.41 2.86 0.64 5 2.71 7.47 5.11 1.95 1.89 3.98 3.85 6.57 5.23l2.14 1.15 1.56-1.86c10.61-12.55 13.52-24.5 8.19-33.64l-0.71-1.23-1.42-0.22c-2.17-0.34-4.28-0.79-6.33-1.22q-2.08-0.45-4.22-0.86c-1.39-1.3-2.98-2.17-4.4-2.96-1.21-0.66-2.28-1.26-3.07-2 1.75-9 6.13-17.89 10.4-26.53 1.77-3.59 3.61-7.3 5.21-10.94l0.19-0.43 0.05-0.47q0.26-2.64 0.46-5.27c0.48-6.08 0.94-11.83 3.02-17.27 1.77-4.28 3.85-8.53 5.86-12.64 5.08-10.37 10.33-21.09 11.17-33.43 1.07-3.62 2.61-7.06 4.23-10.69 2.38-5.34 4.83-10.85 5.75-17.02 4.87-2.98 5.44-8.91 5.9-13.76 0.18-1.93 0.35-3.78 0.74-5.32l0.13-0.09c1.1-0.2 2.43-0.17 3.82-0.14q0.86 0.02 1.71 0.02 0.66 0.61 1.33 1.29c0.81 0.8 1.64 1.63 2.63 2.41l0.82 0.65h1.05q1.64 0.01 3.41 0.14 1.11 0.08 2.29 0.13 0.44 0.63 0.9 1.27c0.6 0.87 1.23 1.77 1.97 2.69l1.3 1.62 3.42-1.13c4.55 4.17 8.61 7.74 16.14 9.25l0.51 0.11 0.52-0.08c2.8-0.42 5.52 0.43 8.41 1.32 2.75 0.86 5.58 1.74 8.74 1.69l4.12 3.06 1.13-0.1c3.27-0.28 6.63-1.31 10.27-3.14q1.31-0.11 2.58-0.27c3-0.35 5.83-0.68 8.41 0.12l1.01 0.32 0.98-0.39q0.63-0.24 1.21-0.52c0.24-0.11 0.55-0.25 0.81-0.36l0.03 0.05 0.56 1.15 5.5 1.77 1.13-0.61c2.1-1.13 4.22-1.32 6.67-1.53 1.15-0.11 2.34-0.21 3.61-0.42 0.35 0.32 0.94 1.16 1.48 3.31l0.34 1.36 1.24 0.6-0.01 0.17q-1.31 1.44-2 3.17c-1.14 0.55-3.01 1.55-3.28 3.74l-0.18 1.45 2.85 2.84 1.57-0.32q2-0.4 3.44-0.55l0.03 0.03 0.89 0.88 2.74-0.01 0.69-0.41q0.76-0.43 1.43-0.81c0.86-0.49 1.69-0.95 2.53-1.5l3.05-0.02 0.73-0.48c0.38-0.24 0.78-0.44 1.26-0.68 0.56-0.27 1.2-0.59 1.87-1.02l0.96-0.62 1.08-3.94c0.38-0.08 0.91-0.09 1.8-0.04l1.29 0.06 0.87-0.85c0.2-0.13 0.72-0.38 1.03-0.54l1.1-0.53 0.41-1.14c0.07-0.2 0.24-0.46 0.43-0.77q0.25-0.39 0.52-0.88l0.03-0.01c3.15-1.97 6.66-4.16 8.52-8.02q0.83-0.12 1.78-0.32c0.36 0.27 0.8 0.57 1.3 0.82l1.32 0.64 1.32-0.65q0.69-0.36 1.24-0.76c0.11 0.02 0.22 0.05 0.26 0.07l1.14 0.56 1.2-0.44c2.18-0.79 4.67-0.87 8.08-0.25l3.14 0.56 0.37-3.16c0.26-2.17 0.89-3.91 2.1-5.82l0.26-0.42 0.12-0.49c0.19-0.8 0.32-1.56 0.44-2.22 0.2-1.23 0.35-2 0.65-2.6q0.98-0.07 1.83-0.15c0.79-0.08 1.54-0.16 2.22-0.16l2.94-0.01 0.03-1.69 0.52-0.51 0.34-2.08c0.52-3.02 1.09-6.41 0.15-9.87 0.31-1.24 0.62-2.63 0.92-3.99l0.23-1.05-0.49-0.96q-0.99-1.91-1.98-3.68c-3.05-5.5-5.46-9.85-3.38-16.16l0.18-0.55-0.04-0.59c-0.36-5.38-1.4-10.77-2.41-15.98-1.24-6.45-2.42-12.56-2.4-18.57q0.58-1.02 1.07-1.99c0.42-0.81 0.82-1.58 1.28-2.32l0.42-0.67 0.03-0.79c0.05-1.42 0.61-2.66 1.26-4.09l0.6-1.32-0.14-0.87c-0.25-1.69-0.27-3.8-0.06-5.46 2.65-3.89 3.89-8.01 5.09-12.01 0.81-2.7 1.58-5.26 2.75-7.66q0.74-0.56 1.47-1.15c4.3-3.39 7.59-5.7 10.95-4.41l0.87 0.33 0.91-0.22c1.35-0.33 2.45-0.89 3.38-1.45q0.3 0.06 0.6 0.1c6.84 1.16 16.09 2.71 21.03-5.58q0.16-0.02 0.32-0.03c0.64-0.05 1.38-0.12 2.16-0.31q0.29 0.15 0.56 0.29 0.46 0.24 0.95 0.53l1.45 0.95 1.55-0.79q1.51-0.79 2.9-1.63c2.18-1.28 4.24-2.49 6.43-2.76l2.03-0.24 0.51-1.99c0.16-0.63 0.33-1.19 0.49-1.74q0.13-0.45 0.26-0.91c0.35-0.34 0.61-0.66 0.79-0.89l0.96-0.96v-1.27q0-0.24 0.07-0.56c0.95-0.26 2.09-0.66 3.09-1.59l0.74-0.67 0.18-0.98c0.32-1.71 1.51-3.01 3.02-4.66q0.75-0.81 1.48-1.66l0.33-0.4 0.18-0.49c0.99-2.64 0.21-4.71-0.31-6.08-0.28-0.76-0.4-1.13-0.4-1.44l0.07-0.13q0.41-0.31 0.89-0.64c0.66-0.46 1.41-0.98 2.1-1.65l0.91-0.89-0.02-4.42-0.76-0.85c-3.29-3.66-6.17-7.28-5.45-11.21q0.62-0.61 1.14-1.31l5.68-3.32 0.26-1.33c0.16-0.8 0.32-1.52 0.48-2.25q0.11-0.51 0.23-1.04c5.22 1.62 9.84-0.69 13.99-2.76q1.33-0.68 2.61-1.26c1.51 0.64 2.66 1.25 3.53 2.32l0.9 1.11 3.36 0.01c1.87 1.49 3.53 1.53 4.66 1.25l2.29-0.56z"/>
</svg>